<?xml version="1.0" encoding="UTF-8"?>
<!DOCTYPE svg PUBLIC "-//W3C//DTD SVG 1.1//EN" "http://www.w3.org/Graphics/SVG/1.1/DTD/svg11.dtd">
<svg version="1.1" xmlns="http://www.w3.org/2000/svg" xmlns:xlink="http://www.w3.org/1999/xlink" x="0" y="0" width="32" height="32" viewBox="0, 0, 32, 32">
  <g id="Pencils">
    <path d="M1,29.7 L1.9,22.9 C1.9,22.7 2,22.5 2.2,22.3 L18.7,5.8 L18.7,5.8 L18.7,5.8 L22.6,1.9 C23.2,1.3 24,1 24.8,1 L24.8,1 C25.2,1 25.6,1.1 26,1.2 C26,1.2 26,1.2 26,1.2 C26.2,1.3 26.3,1.4 26.5,1.5 C26.5,1.5 26.6,1.5 26.6,1.5 C26.7,1.6 26.9,1.8 27.1,1.9 L28.6,3.5 L28.6,3.5 L30.1,5 C31.3,6.2 31.3,8.2 30.1,9.5 L26.2,13.3 L26.2,13.3 L26.2,13.3 L9.7,29.8 C9.5,30 9.3,30.1 9.1,30.1 L2.1,31 C2.1,31 2,31 2,31 C2,31 2,31 2,31 C1.7,31 1.5,30.9 1.3,30.7 C1.1,30.5 1,30.3 1,30 C1,29.9 1,29.8 1,29.7 z" fill="#FFC10A"/>
    <path d="M18.8,5.7 C18.8,5.7 18.7,5.8 18.8,5.7 L22.6,1.9 C23.2,1.3 24,1 24.8,1 C24.8,1 24.8,1 24.8,1 C25.6,1 26.4,1.3 27.1,1.9 L28.6,3.5 L28.6,3.5 L30.1,5 C31.3,6.2 31.3,8.2 30.1,9.5 L26.2,13.3 C26.6,12.9 26.6,12.3 26.2,11.9 L25.5,11.2 L23.2,8.9 L20.2,5.9 C20,5.7 19.8,5.6 19.5,5.6 C19.5,5.6 19.4,5.6 19.4,5.6 C19.3,5.6 19.2,5.6 19.1,5.7 C18.9,5.6 18.8,5.7 18.8,5.7 L18.8,5.7 C18.7,5.8 18.7,5.8 18.8,5.7 L18.8,5.7 z" fill="#F44236"/>
  </g>
</svg>
