<?xml version="1.0" encoding="UTF-8"?>
<!DOCTYPE svg PUBLIC "-//W3C//DTD SVG 1.1//EN" "http://www.w3.org/Graphics/SVG/1.1/DTD/svg11.dtd">
<svg version="1.1" xmlns="http://www.w3.org/2000/svg" xmlns:xlink="http://www.w3.org/1999/xlink" x="0" y="0" width="28.748" height="20" viewBox="0, 0, 28.748, 20">
  <g id="Livello_46">
    <path d="M6.76,5.027 C6.76,3.872 5.829,2.936 4.679,2.936 C3.53,2.936 2.599,3.872 2.599,5.027 C2.599,6.181 3.53,7.118 4.679,7.118 C5.829,7.118 6.76,6.182 6.76,5.027 M1.996,18.07 C1.996,18.07 1.976,18.097 1.947,18.143 L26.801,18.143 C26.799,18.14 26.797,18.138 26.796,18.135 L18.313,6.587 C18.313,6.587 17.307,5.219 16.302,6.587 L11.053,13.734 L9.122,11.104 C9.122,11.104 8.116,9.735 7.112,11.104 L1.996,18.07 z M27.642,18.889 L1.106,18.889 L1.106,1.111 L27.642,1.111 L27.642,18.889 L27.642,18.889 z M28.748,19.444 L28.748,0.556 C28.748,0.249 28.5,0 28.195,0 L0.553,0 C0.248,0 0,0.249 0,0.556 L0,19.444 C0,19.751 0.248,20 0.553,20 L28.195,20 C28.5,20 28.748,19.751 28.748,19.444" fill="#000000"/>
  </g>
</svg>
