<?xml version="1.0" encoding="UTF-8"?>
<!DOCTYPE svg PUBLIC "-//W3C//DTD SVG 1.1//EN" "http://www.w3.org/Graphics/SVG/1.1/DTD/svg11.dtd">
<svg version="1.1" xmlns="http://www.w3.org/2000/svg" xmlns:xlink="http://www.w3.org/1999/xlink" x="0" y="0" width="42" height="42" viewBox="0, 0, 42, 42">
  <g id="Layer_1">
    <path d="M21,42 C9.402,42 -0,32.598 -0,21 C-0,9.402 9.402,0 21,0 C32.598,-0 42,9.402 42,21 C42,32.598 32.598,42 21,42 z" fill="#DFF9FB"/>
    <g>
      <path d="M21,22.863 C22.716,22.863 24.269,22.168 25.393,21.043 C26.516,19.92 27.212,18.368 27.212,16.652 C27.212,14.936 26.516,13.383 25.393,12.26 C24.269,11.136 22.716,10.44 21,10.44 C19.284,10.44 17.731,11.136 16.607,12.26 C15.484,13.383 14.788,14.936 14.788,16.652 C14.788,18.368 15.484,19.92 16.607,21.043 C17.731,22.168 19.284,22.863 21,22.863 z" fill="#2D3436"/>
      <path d="M21,31.56 C25.371,31.56 28.454,30.317 28.454,29.075 C28.454,26.59 25.53,24.106 21,24.106 C16.341,24.106 13.546,26.59 13.546,29.075 C13.546,30.317 16.341,31.56 21,31.56 z" fill="#2D3436"/>
    </g>
  </g>
</svg>
