<?xml version="1.0" encoding="UTF-8"?>
<!DOCTYPE svg PUBLIC "-//W3C//DTD SVG 1.1//EN" "http://www.w3.org/Graphics/SVG/1.1/DTD/svg11.dtd">
<svg version="1.1" xmlns="http://www.w3.org/2000/svg" xmlns:xlink="http://www.w3.org/1999/xlink" x="0" y="0" width="36" height="36" viewBox="0, 0, 36, 36">
  <g id="Layer_1">
    <path d="M13.184,28.562 L11.362,30.371 C9.783,31.936 7.215,31.937 5.637,30.371 C4.878,29.618 4.462,28.618 4.462,27.555 C4.462,26.492 4.879,25.492 5.637,24.739 L12.342,18.087 C13.731,16.709 16.345,14.68 18.251,16.569 C19.125,17.438 20.537,17.432 21.405,16.558 C22.274,15.684 22.268,14.272 21.394,13.404 C18.155,10.19 13.369,10.784 9.2,14.92 L2.494,21.573 C0.886,23.17 -0,25.294 -0,27.555 C-0,29.816 0.886,31.939 2.495,33.536 C4.15,35.179 6.324,36 8.499,36 C10.674,36 12.849,35.179 14.506,33.536 L16.329,31.726 C17.203,30.859 17.208,29.446 16.339,28.572 C15.472,27.699 14.058,27.694 13.184,28.562 z M33.504,2.72 C30.026,-0.732 25.162,-0.919 21.942,2.276 L19.671,4.53 C18.797,5.398 18.792,6.81 19.66,7.684 C20.529,8.558 21.941,8.563 22.815,7.695 L25.085,5.443 C26.753,3.786 28.937,4.473 30.362,5.886 C31.122,6.639 31.539,7.64 31.539,8.702 C31.539,9.766 31.121,10.766 30.363,11.519 L23.209,18.615 C19.938,21.861 18.404,20.338 17.749,19.688 C16.875,18.82 15.463,18.825 14.594,19.699 C13.726,20.573 13.731,21.985 14.606,22.853 C16.107,24.343 17.821,25.082 19.618,25.082 C21.818,25.082 24.142,23.974 26.352,21.781 L33.505,14.684 C35.113,13.087 36,10.963 36,8.702 C36,6.442 35.113,4.318 33.504,2.72 z" fill="#2D3436"/>
  </g>
</svg>
