<?xml version="1.0" encoding="UTF-8"?>
<!DOCTYPE svg PUBLIC "-//W3C//DTD SVG 1.1//EN" "http://www.w3.org/Graphics/SVG/1.1/DTD/svg11.dtd">
<svg version="1.1" xmlns="http://www.w3.org/2000/svg" xmlns:xlink="http://www.w3.org/1999/xlink" x="0" y="0" width="247" height="72" viewBox="0, 0, 247, 72">
  <defs>
    <clipPath id="Clip_1">
      <path d="M-1.791,13.119 L245.384,13.119 L245.384,72.468 L-1.791,72.468 z M239.384,21.119 L4.209,21.119 L4.209,64.468 L239.384,64.468 L239.384,21.119 z"/>
    </clipPath>
    <filter id="Shadow_2">
      <feGaussianBlur in="SourceAlpha" stdDeviation="2.5"/>
      <feOffset dx="0" dy="2" result="offsetblur"/>
      <feFlood flood-color="#000000"/>
      <feComposite in2="offsetblur" operator="in"/>
    </filter>
    <clipPath id="Clip_3">
      <path d="M-1.791,-2.536 L247.719,-2.536 L247.719,72.122 L-1.791,72.122 z M238.879,5.464 L4.209,20.867 L7.048,64.122 L241.719,48.72 L238.879,5.464 z"/>
    </clipPath>
    <filter id="Shadow_4">
      <feGaussianBlur in="SourceAlpha" stdDeviation="2.5"/>
      <feOffset dx="0" dy="2" result="offsetblur"/>
      <feFlood flood-color="#000000"/>
      <feComposite in2="offsetblur" operator="in"/>
    </filter>
    <clipPath id="Clip_5">
      <path d="M19.757,11.899 L230.653,11.899 L230.653,61.343 L19.757,61.343 z M146.851,22.079 L146.52,22.236 L146.89,22.061 L147.117,21.958 L147.473,21.803 L147.473,21.804 C147.138,21.948 147.255,21.895 147.117,21.958 C146.968,22.023 147.044,21.988 146.89,22.061 L146.851,22.079 z M167.298,21.621 L167.505,22.555 C167.438,22.245 167.383,21.926 167.298,21.621 L167.284,21.559 L167.254,21.501 C167.146,21.2 166.942,20.943 166.819,20.649 L167.254,21.501 L167.298,21.621 z M197.609,24.491 L197.609,24.491 C197.688,24.495 197.688,24.495 197.609,24.491 z M185.364,24.492 L185.292,24.789 L185.364,24.492 L185.364,24.492 z M176.634,26.576 L176.634,26.576 L177.047,26.601 L176.634,26.576 z M205.568,24.936 L205.375,25.748 Q205.84,23.787 206.307,21.826 L206.307,21.826 C206.06,22.863 205.814,23.899 205.568,24.936 z M183.526,32.182 C183.489,32.3 183.489,32.3 183.526,32.182 Q183.516,32.075 183.547,32.017 L183.55,32.009 C183.556,31.996 183.562,31.983 183.568,31.969 C183.568,31.969 183.568,31.968 183.568,31.968 C183.568,31.967 183.569,31.966 183.569,31.966 C183.571,31.952 183.572,31.938 183.574,31.925 L183.568,31.968 L183.55,32.009 L183.547,32.017 L183.547,32.017 L183.526,32.087 L183.526,32.134 L183.526,32.182 L183.526,32.182 z M116.822,32.674 L116.787,32.686 Q116.823,32.684 116.855,32.644 L116.963,32.634 L116.999,32.63 C117.471,32.652 117.471,32.652 116.999,32.63 L116.963,32.634 L116.855,32.644 L116.822,32.674 z M172.547,32.132 C172.467,32.501 172.467,32.501 172.547,32.132 Q172.613,31.873 172.639,31.762 C172.585,31.984 172.615,31.861 172.547,32.132 L172.547,32.132 z M99.919,33.264 L99.817,33.283 L99.919,33.264 C100.053,33.215 100.053,33.215 99.919,33.264 z M43.341,34.547 L43.605,34.662 L43.341,34.546 L43.241,34.504 L43.341,34.547 z M79.361,35.744 L79.361,35.744 L79.774,35.768 L79.361,35.744 z M195.773,35.491 L195.405,35.637 C195.753,35.5 195.632,35.555 195.773,35.491 C195.937,35.426 195.857,35.462 196.012,35.382 C196.149,35.32 196.031,35.374 196.358,35.204 L196.358,35.204 L196.012,35.382 L195.773,35.491 z M181.333,37.306 L181.293,37.31 L181.333,37.306 L182.943,37.036 L181.333,37.306 z M58.676,38.416 L58.676,38.416 L58.896,38.439 L58.676,38.416 z M66.477,38.739 L66.479,38.91 Q66.481,38.73 66.467,38.586 L66.477,38.739 z M141.958,39.643 L141.993,39.672 C141.993,39.672 141.993,39.672 141.993,39.672 L141.958,39.643 L141.958,39.643 L141.861,39.615 L141.958,39.643 z M127.471,37.177 L126.964,38.439 C127.133,38.019 127.307,37.599 127.471,37.177 C127.519,37.057 127.496,37.117 127.538,36.995 C127.696,36.572 127.825,36.139 127.977,35.715 L127.989,35.68 L127.989,35.68 L127.977,35.715 L127.538,36.995 L127.471,37.177 z M192.505,39.982 L192.509,40.014 Q192.505,39.978 192.504,39.96 Q192.502,39.942 192.498,39.906 L192.387,39.422 L192.498,39.906 C192.503,39.952 192.501,39.927 192.505,39.982 z M34.08,40.73 L35.166,41.488 C33.586,40.385 34.421,41.01 32.683,39.585 L32.64,39.55 L32.024,38.89 L32.64,39.55 L32.683,39.585 L34.08,40.73 z M116.921,42.65 L117.902,42.977 C117.575,42.868 117.248,42.759 116.921,42.65 C116.921,42.65 116.921,42.649 116.921,42.649 L116.146,42.151 L116.046,42.086 L115.905,41.94 L116.046,42.086 L116.146,42.151 L116.921,42.65 z M65.557,43.129 L65.53,43.231 Q65.556,43.12 65.585,43.044 L65.557,43.129 z M74.98,43.217 C74.975,43.38 74.975,43.38 74.98,43.217 L75.017,42.987 L75.031,42.771 L75.044,42.632 L75.072,42.422 C75.045,42.62 75.052,42.55 75.044,42.632 C75.032,42.724 75.037,42.678 75.031,42.771 C75.023,42.856 75.029,42.784 75.017,42.987 L75.017,42.987 L74.98,43.217 L74.98,43.217 z M93.597,44.465 L94.55,44.78 C93.19,44.33 93.886,44.632 92.486,43.819 C91.642,43.329 92.084,43.639 91.203,42.836 L90.849,42.417 L91.202,42.836 C92.084,43.639 91.642,43.329 92.486,43.819 L93.597,44.465 z M81.664,46.175 C83.114,46.539 83.114,46.539 81.664,46.175 L81.159,45.939 L81.664,46.175 z M159.878,19.899 L159.373,19.922 L158.66,20.051 L159.373,19.922 L159.879,19.899 L160.366,19.957 L159.878,19.899 z M160.721,20.023 L161.004,20.149 L161.004,20.149 L160.721,20.023 z M217.79,20.806 C217.819,20.812 217.806,20.809 217.829,20.813 C217.806,20.809 217.819,20.812 217.79,20.806 z M216.35,22.11 L216.35,22.11 L215.714,22.22 L216.35,22.11 z M216.4,22.113 C216.983,22.155 216.742,22.089 217.139,22.243 C216.742,22.089 216.983,22.155 216.4,22.113 z M221.165,22.953 L221.292,23.524 L221.305,24.448 L221.292,23.524 L221.165,22.953 z M197.939,24.555 L197.959,24.566 L198.127,24.641 L197.959,24.566 L197.939,24.555 z M175.124,24.562 L176.241,24.714 L176.906,24.926 L176.241,24.714 L175.124,24.562 z M144.23,23.691 L145.541,22.781 Q144.171,23.597 143.036,24.789 L142.522,25.395 L143.036,24.789 L144.23,23.691 z M167.438,24.012 L167.505,23.513 Q167.46,24.006 167.328,24.524 L166.913,25.742 L167.329,24.524 L167.438,24.012 z M220.642,26.046 L219.966,26.722 L219.153,27.321 L219.966,26.722 L220.642,26.046 z M212.691,26.649 C212.65,26.941 212.664,26.838 212.648,26.956 C212.627,27.104 212.637,27.032 212.62,27.172 C212.613,27.226 212.619,27.18 212.604,27.31 L212.587,27.454 L212.587,27.454 L212.604,27.31 L212.62,27.172 L212.648,26.956 L212.691,26.649 z M141.82,26.673 L141.631,27.344 Q141.59,27.673 141.56,27.928 L141.544,28.147 L141.56,27.929 Q141.59,27.673 141.631,27.344 L141.82,26.673 z M155.778,23.588 Q155.433,24.922 155.124,26.253 C155.013,26.735 154.901,27.217 154.789,27.699 L154.508,28.915 L154.508,28.915 C154.602,28.51 154.696,28.104 154.789,27.699 C154.919,27.14 154.807,27.622 155.124,26.253 Q155.433,24.922 155.778,23.588 z M45.356,29.147 C45.651,29.238 45.509,29.187 45.783,29.299 C45.509,29.186 45.651,29.238 45.356,29.147 z M141.649,28.82 L141.856,29.149 C142.216,29.476 142.045,29.347 142.356,29.557 C142.045,29.347 142.216,29.476 141.856,29.149 L141.649,28.82 z M224.653,26.571 L224.653,26.571 L224.64,26.601 L223.916,28.254 L223.808,28.474 L222.98,29.972 L222.953,30.021 L222.41,30.78 L222.953,30.021 L222.98,29.972 C223.257,29.474 223.541,28.978 223.808,28.474 C223.885,28.334 223.849,28.407 223.916,28.254 C224.181,27.714 224.385,27.146 224.64,26.601 L224.653,26.571 z M213.353,29.443 L212.528,29.521 C212.822,30.461 212.605,29.94 213.284,31.037 C212.605,29.94 212.822,30.461 212.528,29.521 L213.353,29.443 z M116.795,23.175 L116.795,23.175 L114.847,31.278 L114.847,31.278 L116.795,23.175 z M40.907,30.581 Q40.011,30.666 39.24,31.118 L38.889,31.369 L39.24,31.118 Q40.011,30.666 40.907,30.581 z M142.825,31.087 L142.019,31.845 L141.566,32.144 L142.019,31.845 L142.825,31.087 z M206.562,31.405 L207.222,32.118 L207.575,32.398 L207.222,32.118 L206.562,31.405 z M140.462,32.511 L139.81,32.578 L139.08,32.557 L139.81,32.578 L140.462,32.511 z M183.459,32.622 L183.457,32.509 L183.459,32.622 C183.435,32.712 183.44,32.671 183.437,32.744 C183.44,32.671 183.435,32.712 183.459,32.622 z M124.288,31.804 L124.38,32.296 L124.379,32.921 L124.38,32.296 L124.288,31.804 z M183.444,32.84 L183.45,32.912 Q183.464,33.056 183.531,33.194 L183.568,33.24 L183.531,33.194 Q183.464,33.056 183.45,32.912 L183.444,32.84 L183.444,32.84 z M100.55,33.154 L100.777,33.165 L100.814,33.171 L100.942,33.193 L101.054,33.215 L101.197,33.245 L101.219,33.25 L101.219,33.25 L101.197,33.245 C101.063,33.217 101.111,33.226 101.054,33.215 C100.979,33.199 101.017,33.206 100.942,33.193 C100.891,33.183 100.933,33.192 100.814,33.171 L100.777,33.165 L100.55,33.154 z M48.143,32.358 Q48.145,32.575 48.097,32.832 L47.979,33.266 L48.097,32.832 Q48.145,32.575 48.143,32.358 z M193.633,33.092 L193.553,32.865 Q193.629,33.11 193.719,33.282 L193.755,33.326 L193.719,33.283 L193.633,33.092 z M187.671,33.047 L187.472,33.415 L187.671,33.047 L187.671,33.047 z M193.951,33.541 L194.059,33.63 C194.256,33.709 194.182,33.704 194.266,33.707 C194.182,33.704 194.256,33.709 194.059,33.63 L193.951,33.541 z M99.634,33.363 L99.725,33.319 Q99.639,33.362 99.535,33.408 L98.954,33.737 L99.535,33.408 L99.634,33.363 z M103.763,32.613 L104.201,33.045 L104.576,33.566 L104.67,33.755 L104.576,33.566 Q104.234,33.001 103.763,32.613 z M209.941,33.707 L210.852,33.982 L211.5,34.104 L210.852,33.982 L209.941,33.707 z M88.249,32.989 L88.249,32.989 L88.091,33.66 L87.97,34.155 L88.091,33.66 L88.249,32.989 z M211.794,34.151 L212.503,34.242 Q213.343,34.326 214.207,34.281 Q213.343,34.326 212.503,34.242 L211.794,34.151 z M79.569,34.073 C80.006,34.209 79.795,34.129 80.203,34.311 C79.795,34.129 80.007,34.209 79.569,34.073 z M43.001,34.389 L43.077,34.427 L43.13,34.453 L43.077,34.427 L43.001,34.389 z M153.488,33.015 L153.33,33.69 L153.148,34.394 L153.021,34.908 L153.148,34.394 L153.33,33.69 L153.33,33.69 C153.383,33.465 153.436,33.24 153.488,33.015 C153.488,33.015 153.488,33.015 153.488,33.015 z M45.456,34.926 Q45.402,34.931 45.33,34.937 C45.001,34.956 45.001,34.956 45.331,34.937 Q45.402,34.931 45.456,34.926 z M44.844,34.947 C45.163,34.953 45.163,34.953 44.844,34.947 z M38.203,32.97 C38.35,33.431 38.27,33.281 38.364,33.452 C38.436,33.667 38.383,33.566 38.529,33.752 C38.63,33.937 38.542,33.782 38.859,34.173 L38.859,34.173 L39.147,34.427 C39.367,34.62 39.594,34.804 39.836,34.968 C39.419,34.664 39.624,34.822 39.22,34.491 L39.147,34.427 L38.859,34.173 L38.529,33.752 L38.364,33.452 L38.203,32.97 z M62.569,35.169 C62.61,35.169 62.575,35.169 62.672,35.185 C62.575,35.169 62.61,35.169 62.569,35.169 z M188.841,34.745 L189.221,35.063 L190.191,35.596 L189.221,35.063 L188.841,34.745 z M172.362,35.25 L172.271,34.762 Q172.321,35.299 172.534,35.641 L172.534,35.641 L172.362,35.25 z M186.749,34.513 L186.443,34.927 L185.498,35.846 L186.443,34.927 L186.749,34.513 z M193.656,36.068 L193.905,36.031 Q193.656,36.072 193.405,36.096 L192.283,36.113 L193.405,36.096 L193.656,36.068 z M57.254,35.983 L57.253,35.983 L57.228,36.094 L57.196,36.229 L57.228,36.094 L57.254,35.983 z M166.562,35.447 C166.865,35.975 166.667,35.675 167.204,36.31 C166.667,35.675 166.865,35.975 166.562,35.446 z M57.067,36.688 Q57.042,36.798 57.016,36.91 L57.016,36.909 C57.05,36.761 57.033,36.835 57.067,36.688 z M152.712,36.146 L152.619,36.506 L152.374,37.21 L152.619,36.506 L152.712,36.146 z M178.432,36.772 L178.937,37.009 Q180.003,37.396 181.154,37.324 Q180.003,37.395 178.936,37.008 L178.432,36.772 z M167.289,36.41 L167.413,36.557 C167.756,36.842 168.081,37.163 168.454,37.406 L168.466,37.416 C168.466,37.416 168.466,37.416 168.466,37.416 L168.646,37.498 C168.813,37.577 168.692,37.52 169.01,37.662 L168.646,37.498 L168.454,37.406 L167.413,36.557 L167.289,36.41 z M100.082,36.918 L100.082,36.918 L100.452,37.295 C100.453,37.295 100.453,37.295 100.453,37.295 C100.603,37.391 100.754,37.486 100.905,37.582 C101.325,37.766 101.325,37.766 100.905,37.582 L100.452,37.295 L100.082,36.918 z M172.43,38.181 Q172.269,38.197 172.09,38.214 L170.844,38.186 L172.09,38.214 Q172.269,38.197 172.43,38.181 z M191.042,37.836 L191.502,38.156 L191.889,38.547 L191.502,38.156 L191.042,37.836 z M203.002,35.486 L203.47,33.539 Q203.002,35.481 202.536,37.442 L202.131,38.655 L202.536,37.442 L203.002,35.486 z M120.74,37.412 Q120.811,38.165 121.208,38.742 L121.332,38.882 L121.209,38.742 L121.208,38.742 C120.783,37.905 120.942,38.348 120.74,37.412 z M151.402,38.413 L150.676,38.912 L149.851,39.339 L150.676,38.912 L151.402,38.413 z M122.506,39.434 L122.531,39.44 L122.531,39.44 L122.506,39.434 z M141.548,39.501 L141.548,39.501 L141.622,39.522 L141.548,39.501 z M114.322,39.275 C114.388,39.489 114.352,39.386 114.43,39.586 C114.352,39.386 114.388,39.489 114.322,39.275 z M141.685,39.544 L141.753,39.572 L141.809,39.595 L141.753,39.572 L141.685,39.544 z M45.542,38.895 L46.257,39.689 L45.542,38.895 L45.542,38.895 z M142.017,39.692 L142.005,39.682 L142.017,39.692 L142.017,39.692 z M142.298,39.808 L142.337,39.825 C143.433,40.192 143.433,40.192 142.337,39.824 L142.298,39.808 z M96.525,39.08 Q96.524,39.441 96.554,39.764 L96.678,40.434 L96.554,39.765 Q96.524,39.441 96.525,39.08 z M35.714,41.847 L35.693,41.83 L35.718,41.85 C35.718,41.85 35.718,41.85 35.718,41.85 C35.721,41.853 35.724,41.856 35.728,41.858 L35.714,41.847 z M35.807,41.924 L35.811,41.927 L35.823,41.933 C35.844,41.943 35.83,41.938 35.866,41.94 C35.83,41.938 35.844,41.943 35.823,41.933 L35.811,41.927 L35.807,41.924 z M97.168,41.608 L97.534,42.113 L97.865,42.406 L97.535,42.112 L97.168,41.608 z M86.171,42.008 L86.178,42.08 Q86.191,42.223 86.258,42.361 L86.3,42.415 L86.258,42.362 Q86.191,42.223 86.178,42.08 L86.171,42.008 z M90.522,41.987 L90.285,42.427 L90.522,41.987 L90.61,42.135 L90.522,41.987 z M191.969,41.709 L192.191,41.436 L191.697,42.033 L191.617,42.099 L190.867,42.555 L190.868,42.555 C191.117,42.406 191.383,42.27 191.617,42.099 C191.68,42.06 191.655,42.083 191.697,42.033 C191.826,41.926 191.719,42.018 191.969,41.709 z M191.113,42.626 L191.132,42.629 L191.133,42.629 L191.113,42.626 z M105.377,42.749 L105.073,43.032 L105.376,42.749 L105.377,42.749 z M188.263,43.262 L189.062,43.738 C190.37,44.241 190.37,44.241 189.062,43.737 L188.263,43.262 z M113.551,36.716 L113.607,36.494 L113.551,36.716 L111.878,43.526 L105.033,44.172 L105.033,44.172 L111.878,43.526 L113.551,36.716 z M37.541,43.151 L38.376,43.819 L38.892,44.344 L38.376,43.819 L37.541,43.151 z M65.413,44.385 L65.371,44.222 Q65.388,44.401 65.507,44.516 L65.413,44.385 z M65.574,44.552 C65.599,44.565 65.624,44.579 65.649,44.592 C65.65,44.592 65.65,44.592 65.65,44.592 L65.659,44.597 L65.7,44.599 C65.788,44.611 65.73,44.605 65.877,44.608 L65.7,44.599 L65.65,44.592 L65.574,44.552 z M69.255,44.555 L69.124,44.792 L69.255,44.555 L69.255,44.555 z M75.261,44.808 L75.089,44.418 L75.261,44.808 L75.261,44.808 z M89.491,43.661 L89.17,44.094 L88.225,45.014 L89.17,44.094 L89.491,43.661 z M98.734,45.199 L98.622,45.21 L98.622,45.21 L98.734,45.199 z M83.97,46.483 L83.922,46.487 L83.97,46.483 C84.036,46.476 84.036,46.476 83.97,46.483 z M47.37,43.912 L47.293,44.538 C47.293,44.538 47.293,44.538 47.293,44.538 L47.256,44.738 L47.167,45.214 L46.636,46.701 L47.167,45.214 C47.239,44.83 47.209,44.989 47.256,44.738 C47.332,44.331 47.285,44.605 47.37,43.912 z M68.518,45.651 L68.235,46.03 L67.285,46.967 L68.235,46.031 L68.518,45.651 z M69.9,45.444 L70.141,45.725 L71.193,46.584 L72.35,47.107 L71.193,46.584 C71.193,46.584 71.193,46.584 71.193,46.584 L70.141,45.725 L69.9,45.444 z M73.623,47.355 L74.816,47.382 C75.05,47.359 75.05,47.359 74.816,47.382 L73.623,47.355 z M29.395,47.567 L29.406,47.828 L29.505,48.293 L29.406,47.829 L29.395,47.567 z M59.819,47.863 L60.612,48.214 L61.272,48.358 L60.612,48.214 L59.819,47.863 z M61.576,48.412 L62.374,48.482 C62.661,48.461 62.661,48.461 62.374,48.482 L61.576,48.412 z M54.129,48.866 L54.156,48.769 Q54.128,48.861 54.103,48.972 L47.436,49.6 L47.436,49.6 L54.103,48.972 L54.129,48.866 z M44.655,49.274 L43.205,50.36 L41.564,51.293 L43.205,50.36 L44.655,49.274 z M26.797,51.98 L26.797,51.98 L25.757,51.264 L26.797,51.98 z M29.408,52.967 L30.397,53.159 L32.167,53.316 L30.397,53.159 L29.408,52.967 z M35.014,53.225 L34.62,53.268 L32.471,53.343 L34.62,53.268 L35.014,53.225 z"/>
    </clipPath>
    <filter id="Shadow_6">
      <feGaussianBlur in="SourceAlpha" stdDeviation="2.5"/>
      <feOffset dx="0" dy="2" result="offsetblur"/>
      <feFlood flood-color="#000000"/>
      <feComposite in2="offsetblur" operator="in"/>
    </filter>
    <clipPath id="Clip_7">
      <path d="M17.902,10.063 L230.628,10.063 L230.628,61.334 L17.902,61.334 z M216.327,22.124 Q216.94,22.102 217.286,22.323 Q217.632,22.543 217.689,23.152 Q217.792,24.625 216.741,25.555 Q215.69,26.486 214.362,26.972 Q213.909,27.159 213.45,27.275 Q212.991,27.39 212.565,27.467 Q212.602,27.101 212.669,26.661 Q212.737,26.221 212.875,25.774 Q213.259,24.473 214.128,23.343 Q214.998,22.213 216.327,22.124 z M216.336,20.677 Q215.612,20.673 214.86,20.744 Q214.358,20.791 213.842,20.875 Q213.326,20.96 212.795,21.082 Q210.353,21.638 208.28,23.044 Q206.207,24.45 205.693,26.667 Q205.565,27.222 205.524,27.75 Q205.483,28.278 205.53,28.779 Q205.719,30.786 207.201,32.129 Q208.683,33.471 210.829,33.992 Q211.641,34.169 212.48,34.253 Q213.32,34.336 214.183,34.291 Q214.366,34.31 214.581,34.29 Q214.796,34.27 215.011,34.249 Q216.372,34.121 217.656,33.747 Q218.941,33.373 220.073,32.725 Q221.956,31.607 222.928,30.034 Q223.901,28.46 224.628,26.584 L222.759,25.929 Q221.935,28.32 220.25,29.997 Q218.564,31.674 215.876,31.927 Q214.551,32.051 213.679,31.429 Q212.807,30.806 212.506,29.533 Q213.262,29.498 214.291,29.292 Q215.32,29.087 216.404,28.696 Q218.363,28.005 219.943,26.736 Q221.522,25.467 221.268,23.538 Q221.118,22.323 220.137,21.693 Q219.155,21.062 218.089,20.873 Q217.979,20.848 217.887,20.838 Q217.796,20.829 217.685,20.803 Q217.059,20.681 216.336,20.677 z M159.87,19.906 C160.797,20.035 160.435,19.909 160.996,20.156 Q161.551,20.484 161.618,21.2 Q161.648,21.523 161.592,21.89 Q161.537,22.256 161.398,22.703 Q160.54,25.495 158.94,26.929 Q157.34,28.363 154.5,28.92 Q154.809,27.589 155.117,26.259 Q155.426,24.928 155.77,23.595 Q156.111,22.225 156.986,21.148 Q157.861,20.072 159.365,19.93 L159.87,19.906 z M159.294,18.063 C155.159,18.139 156.981,18.037 153.824,18.283 Q150.778,18.57 147.875,19.403 Q144.971,20.237 142.629,21.47 Q140.286,22.702 138.641,24.231 Q136.995,25.76 136.466,27.436 Q136.263,27.961 136.204,28.491 Q136.145,29.021 136.193,29.522 Q136.318,30.848 137.252,31.754 Q138.187,32.66 139.806,32.58 Q141.175,32.524 142.015,31.848 Q142.855,31.173 143.556,30.167 Q143.252,30.015 143.007,29.911 Q142.763,29.808 142.534,29.685 Q142.113,29.435 141.851,29.152 Q141.59,28.87 141.546,28.404 Q141.526,28.189 141.556,27.933 Q141.586,27.677 141.627,27.348 Q141.897,25.985 143.032,24.794 Q144.167,23.602 145.536,22.787 Q146.014,22.489 146.515,22.243 Q147.016,21.997 147.468,21.809 Q147.031,22.537 146.691,23.347 Q146.352,24.156 146.143,25.007 Q145.467,27.818 144.772,30.613 Q144.078,33.407 143.406,36.254 Q143.229,37.066 142.84,37.735 Q142.451,38.405 141.932,39.032 Q141.835,39.149 141.737,39.267 Q141.64,39.385 141.542,39.502 C141.718,39.552 141.615,39.519 141.847,39.614 L141.953,39.644 Q141.993,39.677 142.012,39.693 Q142.032,39.709 142.068,39.706 Q142.143,39.735 142.2,39.766 Q142.257,39.796 142.332,39.826 Q143.086,40.152 144.109,40.273 Q145.133,40.393 146.244,40.289 Q146.459,40.269 146.692,40.247 Q146.924,40.225 147.136,40.169 Q149.058,39.843 150.669,38.914 Q152.281,37.985 152.612,36.508 Q152.798,35.804 152.967,35.101 Q153.136,34.398 153.323,33.694 Q153.477,33.029 153.646,32.326 Q153.815,31.623 154.001,30.919 Q154.614,30.897 155.3,30.887 Q155.986,30.877 156.667,30.812 Q157.347,30.748 158.043,30.647 Q158.738,30.545 159.448,30.406 Q162.141,29.827 164.417,28.474 Q166.694,27.121 167.318,24.532 Q167.45,24.013 167.494,23.521 Q167.538,23.029 167.494,22.563 Q167.396,21.524 166.809,20.658 Q166.221,19.791 165.01,19.218 Q163.489,18.422 160.753,18.155 L159.294,18.063 z M197.591,24.502 Q197.644,24.497 197.719,24.526 Q197.755,24.523 197.829,24.534 Q197.902,24.545 197.941,24.577 Q198.238,24.658 198.385,24.879 Q198.533,25.1 198.592,25.348 Q198.635,25.416 198.645,25.523 Q198.655,25.631 198.662,25.703 Q198.504,26.332 198.339,27.269 Q198.174,28.207 197.907,29.208 Q197.518,30.835 196.726,32.211 Q195.933,33.587 194.464,33.725 Q194.213,33.749 194.04,33.639 Q193.867,33.528 193.7,33.291 Q193.612,33.119 193.534,32.873 Q193.457,32.627 193.434,32.376 Q193.376,31.767 193.501,30.978 Q193.625,30.189 193.909,29.367 Q194.271,28.213 194.872,27.108 Q195.472,26.003 196.128,25.29 Q196.46,24.97 196.801,24.757 Q197.143,24.544 197.465,24.514 Q197.537,24.507 197.59,24.502 z M176.621,26.584 Q177.123,26.537 177.272,26.776 Q177.421,27.015 177.461,27.445 Q177.515,28.018 177.378,28.863 Q177.24,29.707 176.915,30.859 Q176.773,31.27 176.605,31.791 Q176.437,32.313 176.165,32.881 Q175.69,33.974 174.964,34.91 Q174.239,35.846 173.2,35.944 Q172.734,35.988 172.521,35.646 Q172.308,35.305 172.258,34.767 Q172.238,34.552 172.232,34.3 Q172.226,34.047 172.278,33.826 Q172.287,33.535 172.333,33.26 Q172.379,32.985 172.427,32.727 Q172.469,32.398 172.535,32.138 Q172.601,31.879 172.626,31.768 Q172.732,31.361 172.985,30.777 Q173.237,30.193 173.577,29.582 Q174.037,28.707 174.651,27.927 Q175.264,27.146 175.918,26.795 Q176.09,26.707 176.266,26.654 Q176.442,26.601 176.621,26.584 z M206.287,21.84 L199.443,22.484 L199.26,23.224 Q198.307,22.699 197.275,22.489 Q196.243,22.279 195.203,22.377 Q195.024,22.394 194.829,22.43 Q194.634,22.467 194.454,22.484 Q191.436,23.057 189.102,25.536 C188.114,26.797 187.077,27.882 187.079,29.709 L187.074,29.721 Q187.045,29.796 187.016,29.872 Q186.932,30.132 186.736,30.549 Q186.541,30.965 186.255,31.389 Q185.973,31.849 185.616,32.281 Q185.259,32.712 184.889,33 Q184.684,33.128 184.495,33.236 Q184.306,33.344 184.091,33.364 Q183.987,33.41 183.896,33.401 Q183.805,33.391 183.73,33.362 Q183.583,33.34 183.516,33.201 Q183.449,33.063 183.435,32.92 Q183.428,32.848 183.422,32.777 Q183.415,32.705 183.444,32.63 Q183.434,32.522 183.458,32.394 Q183.482,32.265 183.511,32.19 Q183.501,32.082 183.532,32.025 Q183.562,31.968 183.559,31.932 Q183.864,30.566 184.189,29.216 Q184.514,27.866 184.858,26.532 Q185.012,25.867 185.183,25.182 Q185.353,24.497 185.508,23.832 Q183.752,23.997 182.014,24.161 Q180.276,24.324 178.52,24.49 L178.263,25.598 Q177.336,24.963 176.229,24.723 Q175.122,24.484 173.975,24.592 Q173.832,24.606 173.671,24.621 Q173.509,24.636 173.369,24.685 Q171.943,24.892 170.63,25.54 Q169.317,26.187 168.352,27.073 Q167.089,28.241 166.356,29.864 Q165.623,31.488 165.778,33.136 Q165.866,34.068 166.255,34.935 Q166.644,35.802 167.402,36.562 Q168.402,37.588 169.611,37.945 Q170.819,38.301 172.077,38.219 Q172.256,38.202 172.417,38.187 Q172.578,38.171 172.718,38.122 Q173.998,37.893 175.182,37.221 Q176.366,36.55 177.249,35.563 Q177.855,36.626 178.922,37.014 Q179.989,37.401 181.139,37.329 C181.212,37.322 181.166,37.327 181.278,37.316 L181.318,37.313 Q184.758,36.989 186.426,34.934 C187.401,33.607 187.008,34.244 187.655,33.055 C188.538,34.678 187.986,34.036 189.204,35.07 Q191.093,36.32 193.387,36.104 Q193.638,36.081 193.887,36.039 Q194.136,35.997 194.383,35.938 Q194.878,35.819 195.386,35.645 Q195.894,35.471 196.339,35.212 Q196.211,35.766 196.058,36.449 Q195.906,37.132 195.719,37.837 Q195.229,39.546 194.321,41.041 Q193.414,42.536 191.547,42.676 Q191.476,42.683 191.384,42.673 Q191.293,42.664 191.218,42.635 Q191.11,42.645 191.017,42.617 Q190.925,42.59 190.85,42.561 Q191.787,42.147 192.172,41.442 Q192.558,40.737 192.49,40.02 Q192.487,39.985 192.485,39.967 Q192.483,39.949 192.48,39.913 Q192.35,38.913 191.484,38.163 Q190.618,37.413 189.328,37.535 Q189.256,37.541 189.185,37.548 Q189.113,37.555 189.041,37.562 Q188.934,37.572 188.864,37.596 Q188.794,37.621 188.722,37.628 Q187.524,37.957 187.054,38.725 Q186.584,39.492 186.633,40.391 Q186.649,40.57 186.683,40.73 Q186.716,40.889 186.768,41.065 Q186.989,41.876 187.583,42.615 Q188.177,43.355 189.045,43.743 Q189.991,44.196 191.072,44.347 Q192.153,44.499 193.263,44.394 Q193.586,44.364 193.925,44.314 Q194.263,44.264 194.618,44.194 Q197.308,43.58 199.614,41.772 Q201.92,39.964 202.515,37.45 Q202.981,35.49 203.449,33.548 Q203.917,31.606 204.419,29.643 Q204.888,27.719 205.355,25.759 Q205.821,23.8 206.287,21.84 z M79.372,35.739 Q79.874,35.691 80.023,35.93 Q80.172,36.17 80.212,36.599 Q80.266,37.173 80.129,38.017 Q79.991,38.862 79.666,40.013 Q79.524,40.424 79.356,40.946 Q79.188,41.468 78.916,42.035 Q78.441,43.129 77.716,44.064 Q76.99,45 75.951,45.098 Q75.485,45.142 75.272,44.801 Q75.06,44.459 75.009,43.922 Q74.989,43.707 74.983,43.454 Q74.977,43.202 75.029,42.98 Q75.038,42.69 75.084,42.414 Q75.13,42.139 75.178,41.881 Q75.22,41.552 75.286,41.293 Q75.352,41.034 75.377,40.923 Q75.484,40.515 75.736,39.931 Q75.988,39.347 76.328,38.736 Q76.788,37.862 77.402,37.081 Q78.015,36.3 78.669,35.949 Q78.841,35.861 79.017,35.808 Q79.193,35.756 79.372,35.739 z M116.798,23.178 L109.954,23.822 L106.76,37.035 C106.148,38.453 105.427,39.844 104.337,40.962 Q102.76,42.647 100.001,42.907 Q98.353,43.062 97.54,42.108 Q96.728,41.154 96.56,39.76 Q96.53,39.438 96.532,39.076 Q96.534,38.714 96.575,38.385 Q96.753,36.814 97.54,35.384 Q98.327,33.954 99.541,33.406 Q99.645,33.36 99.731,33.316 Q99.817,33.272 99.925,33.262 Q100.029,33.216 100.119,33.207 Q100.208,33.199 100.316,33.189 Q100.563,33.129 100.783,33.163 Q101.003,33.196 101.225,33.248 Q100.457,33.537 99.977,34.197 Q99.497,34.856 99.574,35.681 Q99.578,35.716 99.581,35.752 Q99.584,35.788 99.624,35.821 Q99.63,35.892 99.634,35.928 Q99.637,35.964 99.64,36 Q99.759,36.495 100.088,36.916 Q100.417,37.336 100.91,37.579 Q101.213,37.731 101.565,37.825 Q101.918,37.918 102.244,37.924 Q102.354,37.949 102.444,37.941 Q102.534,37.933 102.605,37.926 Q103.214,37.868 103.732,37.603 Q104.249,37.337 104.599,36.834 Q104.888,36.446 105.005,35.965 Q105.123,35.484 105.079,35.018 Q105.072,34.946 105.067,34.892 Q105.062,34.839 105.055,34.767 Q104.923,34.129 104.581,33.565 Q104.238,33 103.768,32.611 Q102.798,31.907 101.549,31.699 Q100.3,31.491 98.939,31.619 Q98.76,31.636 98.581,31.653 Q98.401,31.67 98.19,31.726 Q96.62,31.946 95.154,32.5 Q93.688,33.054 92.702,33.725 Q91.21,34.769 90.347,36.35 C89.909,37.296 89.514,38.304 89.635,39.371 L89.487,39.703 Q89.292,40.119 89.006,40.543 Q88.724,41.004 88.367,41.435 Q88.01,41.866 87.64,42.154 Q87.435,42.282 87.246,42.39 Q87.057,42.498 86.842,42.518 Q86.738,42.564 86.647,42.555 Q86.556,42.545 86.481,42.516 Q86.334,42.494 86.267,42.356 Q86.2,42.217 86.186,42.074 Q86.179,42.003 86.173,41.931 Q86.166,41.859 86.195,41.784 Q86.185,41.677 86.209,41.548 Q86.233,41.419 86.262,41.344 Q86.252,41.237 86.283,41.179 Q86.313,41.122 86.31,41.086 Q86.615,39.72 86.94,38.37 Q87.265,37.02 87.609,35.686 C87.875,34.562 87.713,35.239 88.1,33.656 L88.259,32.986 Q86.503,33.151 84.765,33.315 Q83.027,33.479 81.271,33.644 L81.014,34.753 Q80.087,34.117 78.98,33.878 Q77.873,33.639 76.726,33.746 Q76.583,33.76 76.422,33.775 Q76.26,33.79 76.12,33.84 Q74.694,34.046 73.381,34.694 Q72.068,35.342 71.104,36.228 Q69.84,37.395 69.107,39.019 C68.749,39.953 68.413,40.935 68.52,41.956 C68.386,42.213 68.479,42.04 68.22,42.464 Q67.906,42.964 67.5,43.454 Q67.094,43.944 66.691,44.271 Q66.486,44.399 66.296,44.489 Q66.106,44.579 65.891,44.599 Q65.64,44.623 65.521,44.507 Q65.401,44.392 65.384,44.213 Q65.378,44.141 65.385,44.032 Q65.393,43.923 65.422,43.848 Q65.412,43.74 65.44,43.648 Q65.467,43.555 65.496,43.48 Q65.518,43.333 65.544,43.222 Q65.57,43.111 65.599,43.036 Q65.669,42.632 65.777,42.242 Q65.885,41.852 65.995,41.48 Q66.065,41.076 66.173,40.686 Q66.281,40.297 66.355,39.928 Q66.41,39.742 66.43,39.578 Q66.451,39.413 66.47,39.231 Q66.492,39.084 66.493,38.903 Q66.494,38.722 66.481,38.579 Q66.42,37.934 66.148,37.345 Q65.875,36.756 65.362,36.298 Q64.571,35.577 63.59,35.326 Q62.608,35.075 61.569,35.173 Q61.39,35.19 61.211,35.207 Q61.032,35.224 60.856,35.277 Q59.791,35.485 58.802,35.922 Q57.813,36.358 57.032,36.902 Q57.058,36.791 57.084,36.68 Q57.11,36.569 57.168,36.419 Q57.193,36.308 57.219,36.197 Q57.245,36.086 57.271,35.975 L50.606,36.603 Q49.792,39.861 49.012,43.097 Q48.232,46.334 47.454,49.588 L54.119,48.961 Q54.144,48.85 54.172,48.757 Q54.199,48.664 54.228,48.589 Q54.383,47.924 54.535,47.241 Q54.688,46.557 54.839,45.856 Q55.238,44.337 55.714,42.864 Q56.19,41.391 56.935,40.092 Q57.467,39.211 57.9,38.826 Q58.334,38.442 58.692,38.408 Q58.979,38.381 59.123,38.567 Q59.267,38.752 59.294,39.039 Q59.314,39.254 59.286,39.527 Q59.257,39.801 59.213,40.095 Q59.158,40.28 59.119,40.447 Q59.081,40.613 59.062,40.796 Q58.949,41.132 58.865,41.393 Q58.781,41.653 58.755,41.764 Q58.623,42.283 58.48,42.875 Q58.337,43.467 58.284,44.05 Q58.271,44.304 58.263,44.594 Q58.254,44.884 58.281,45.171 Q58.335,45.744 58.548,46.284 Q58.762,46.825 59.167,47.293 Q59.772,47.959 60.627,48.204 Q61.481,48.448 62.387,48.472 Q62.602,48.451 62.819,48.449 Q63.036,48.447 63.251,48.427 Q66.547,48.116 68.248,46.022 C69.143,44.811 68.837,45.325 69.268,44.547 C69.658,45.228 69.392,44.817 70.153,45.716 Q71.153,46.743 72.362,47.099 Q73.57,47.455 74.828,47.373 Q75.007,47.356 75.168,47.341 Q75.329,47.326 75.469,47.276 Q76.749,47.047 77.933,46.376 Q79.117,45.704 80,44.717 Q80.606,45.781 81.673,46.168 Q82.74,46.556 83.89,46.484 Q83.926,46.48 83.98,46.475 Q84.033,46.47 84.069,46.467 Q87.509,46.143 89.177,44.088 C90.203,42.692 89.759,43.398 90.53,41.982 C90.741,42.343 90.554,42.033 91.21,42.83 Q92.573,44.256 94.556,44.775 Q96.539,45.293 98.627,45.205 C98.82,45.187 98.702,45.198 98.981,45.172 L99.093,45.161 Q100.49,45.029 101.809,44.634 Q103.127,44.239 104.191,43.633 C105.159,42.986 104.78,43.304 105.38,42.745 L105.036,44.168 L111.88,43.523 L113.553,36.714 Q113.605,36.493 113.674,36.269 Q113.743,36.046 113.83,35.821 Q114.241,34.806 114.968,33.888 Q115.695,32.97 116.717,32.693 Q116.753,32.69 116.789,32.686 Q116.825,32.683 116.857,32.644 C116.917,32.638 116.881,32.642 116.965,32.634 L117.001,32.63 Q117.395,32.593 117.628,32.77 Q117.862,32.947 117.928,33.266 Q117.941,33.409 117.906,33.612 Q117.871,33.814 117.748,34.042 Q117.35,34.803 116.638,35.303 Q115.926,35.804 115.132,36.204 Q114.855,36.339 114.561,36.475 Q114.266,36.611 113.99,36.746 Q113.957,36.785 113.905,36.808 Q113.853,36.831 113.817,36.834 Q113.851,37.193 113.924,37.583 Q113.997,37.974 114.07,38.365 Q114.314,39.426 114.749,40.398 Q115.184,41.369 116.047,42.083 Q116.87,42.765 117.902,42.975 Q118.934,43.185 120.152,43.07 Q121.872,42.908 123.122,42.357 Q124.371,41.805 125.264,40.926 Q126.356,39.847 126.949,38.472 Q127.543,37.097 127.988,35.681 L126.047,35.032 Q125.967,35.329 125.886,35.626 Q125.806,35.923 125.689,36.223 Q125.379,37.156 124.882,38.016 Q124.385,38.876 123.48,39.25 Q123.34,39.3 123.182,39.351 Q123.024,39.402 122.845,39.419 Q122.738,39.429 122.63,39.439 Q122.523,39.449 122.448,39.42 Q121.607,39.318 121.209,38.741 Q120.811,38.164 120.74,37.412 Q120.72,37.197 120.718,36.98 Q120.715,36.763 120.734,36.581 Q120.978,36.485 121.221,36.372 Q121.463,36.259 121.704,36.128 Q122.767,35.522 123.634,34.554 Q124.501,33.587 124.38,32.297 Q124.282,31.258 123.503,30.663 Q122.724,30.067 121.765,29.868 Q121.172,29.707 120.517,29.66 Q119.862,29.614 119.181,29.678 Q119.037,29.691 118.894,29.705 Q118.751,29.718 118.611,29.768 Q117.611,29.898 116.636,30.297 Q115.662,30.696 114.849,31.278 L116.798,23.178 z M42.102,28.637 Q41.398,28.649 40.678,28.681 Q40.105,28.735 39.535,28.824 Q38.965,28.914 38.362,29.043 Q35.956,29.595 33.871,30.876 Q31.787,32.157 31.295,34.227 Q31.17,34.817 31.127,35.328 Q31.085,35.838 31.096,36.343 Q31.282,38.313 32.663,39.539 Q34.043,40.765 35.659,41.806 Q35.695,41.802 35.715,41.818 Q35.735,41.835 35.774,41.867 Q35.813,41.9 35.833,41.916 Q35.852,41.932 35.888,41.929 Q37.237,42.814 38.396,43.807 Q39.556,44.801 39.691,46.234 Q39.715,46.485 39.701,46.721 Q39.687,46.957 39.642,47.251 Q39.339,49.015 37.95,50.013 Q36.562,51.011 34.885,51.241 Q34.813,51.248 34.741,51.255 Q34.67,51.262 34.598,51.268 Q32.771,51.44 31.21,50.611 Q29.65,49.782 29.429,47.815 Q29.405,47.564 29.432,47.272 Q29.459,46.98 29.468,46.69 Q29.496,46.218 29.797,45.774 Q30.099,45.329 30.43,45.009 Q30.498,44.966 30.549,44.926 Q30.599,44.885 30.632,44.845 Q30.797,44.685 30.916,44.602 Q31.035,44.518 31.067,44.479 Q31.1,44.44 31.098,44.422 Q31.096,44.404 31.096,44.404 Q31.089,44.332 30.99,44.233 Q30.89,44.134 30.651,43.904 Q30.132,43.374 29.411,43.207 Q28.69,43.04 27.938,43.111 Q27.651,43.138 27.366,43.183 Q27.081,43.228 26.801,43.326 Q25.19,43.876 24.492,45.098 Q23.794,46.321 23.922,47.682 Q23.935,47.826 23.947,47.951 Q23.959,48.076 24.005,48.181 Q24.22,49.317 24.948,50.333 Q25.677,51.349 26.819,51.964 Q28.383,52.829 30.419,53.144 Q32.455,53.458 34.64,53.253 Q35.034,53.215 35.427,53.16 Q35.819,53.105 36.21,53.032 Q40.017,52.385 43.224,50.348 Q46.43,48.311 47.186,45.203 Q47.337,44.502 47.388,43.901 Q47.44,43.299 47.386,42.726 Q47.164,40.361 45.561,38.885 Q43.958,37.409 42.116,36.281 Q41.852,36.162 41.602,36.004 Q41.353,35.847 41.124,35.724 Q40.896,35.601 40.628,35.445 Q40.36,35.29 40.053,35.102 Q39.436,34.69 38.88,34.164 Q38.325,33.638 38.225,32.96 Q38.211,32.817 38.235,32.688 Q38.26,32.559 38.282,32.413 Q38.491,31.562 39.262,31.11 Q40.033,30.657 40.928,30.573 Q40.964,30.57 40.982,30.568 Q41,30.566 41.036,30.563 Q42.078,30.501 43.002,30.902 Q43.925,31.303 44.01,32.199 Q44.02,32.306 44.014,32.434 Q44.007,32.561 43.985,32.707 Q43.918,33.147 43.795,33.376 Q43.672,33.604 43.47,33.768 Q43.337,33.889 43.186,34.012 Q43.035,34.134 42.833,34.298 C43.059,34.392 42.929,34.334 43.221,34.478 L43.362,34.537 Q43.626,34.657 43.889,34.759 Q44.152,34.861 44.409,34.909 Q44.628,34.924 44.864,34.938 Q45.1,34.952 45.351,34.929 Q45.423,34.922 45.476,34.917 Q45.53,34.912 45.602,34.905 Q46.491,34.749 47.221,34.246 Q47.951,33.744 48.117,32.825 Q48.165,32.567 48.163,32.35 Q48.161,32.134 48.144,31.954 Q48.048,30.554 46.897,29.849 Q45.746,29.144 44.416,28.835 Q44.158,28.787 43.901,28.739 Q43.643,28.691 43.389,28.679 Q42.806,28.625 42.102,28.637 z"/>
    </clipPath>
    <filter id="Shadow_8">
      <feGaussianBlur in="SourceAlpha" stdDeviation="2.5"/>
      <feOffset dx="0" dy="2" result="offsetblur"/>
      <feFlood flood-color="#000000"/>
      <feComposite in2="offsetblur" operator="in"/>
    </filter>
  </defs>
  <g id="Layer_1">
    <g>
      <g>
        <path d="M239.384,21.119 L239.384,64.468 L4.209,64.468 L4.209,21.119 L239.384,21.119 z" clip-path="url(#Clip_1)" filter="url(#Shadow_2)" fill="rgba(0,0,0,0.75)"/>
        <path d="M4.209,21.119 L239.384,21.119 L239.384,64.468 L4.209,64.468 L4.209,21.119 z" fill="#686DE0"/>
      </g>
      <g>
        <g>
          <path d="M238.879,5.464 L241.719,48.72 L7.048,64.122 L4.209,20.867 L238.879,5.464 z" clip-path="url(#Clip_3)" filter="url(#Shadow_4)" fill="rgba(0,0,0,0.75)"/>
          <path d="M4.209,20.867 L238.879,5.464 L241.719,48.72 L7.048,64.122 L4.209,20.867 z" fill="#EB4D4B"/>
        </g>
      </g>
    </g>
    <g>
      <path d="M35.014,53.225 L34.62,53.268 L32.471,53.343 L34.62,53.268 L35.014,53.225 z M29.408,52.967 L30.397,53.159 L32.167,53.316 L30.397,53.159 L29.408,52.967 z M26.797,51.98 L25.757,51.264 L26.797,51.98 L26.797,51.98 z M44.655,49.274 L43.205,50.36 L41.564,51.293 L43.205,50.36 L44.655,49.274 z M54.129,48.866 L54.103,48.972 L47.436,49.6 L47.436,49.6 L54.103,48.972 Q54.128,48.861 54.156,48.769 L54.129,48.866 z M61.576,48.412 L62.374,48.482 C62.661,48.461 62.661,48.461 62.374,48.482 L61.576,48.412 z M59.819,47.863 L60.612,48.214 L61.272,48.358 L60.612,48.214 L59.819,47.863 z M29.395,47.567 L29.406,47.829 L29.505,48.293 L29.406,47.828 L29.395,47.567 z M73.623,47.355 L74.816,47.382 C75.05,47.359 75.05,47.359 74.816,47.382 L73.623,47.355 z M69.9,45.444 L70.141,45.725 L71.193,46.584 C71.193,46.584 71.193,46.584 71.193,46.584 L72.35,47.107 L71.193,46.584 L70.141,45.725 L69.9,45.444 z M68.518,45.651 L68.235,46.031 L67.285,46.967 L68.235,46.03 L68.518,45.651 z M47.37,43.912 C47.285,44.605 47.332,44.331 47.256,44.738 C47.209,44.989 47.239,44.83 47.167,45.214 L46.636,46.701 L47.167,45.214 L47.256,44.738 L47.293,44.538 C47.293,44.538 47.293,44.538 47.293,44.538 L47.37,43.912 z M83.97,46.483 C84.036,46.476 84.036,46.476 83.97,46.483 L83.922,46.487 L83.97,46.483 z M98.734,45.199 L98.622,45.21 L98.622,45.21 L98.734,45.199 z M89.491,43.661 L89.17,44.094 L88.225,45.014 L89.17,44.094 L89.491,43.661 z M75.261,44.808 L75.261,44.808 L75.089,44.418 L75.261,44.808 z M69.255,44.555 L69.255,44.555 L69.124,44.792 L69.255,44.555 z M65.574,44.552 L65.65,44.592 L65.7,44.599 L65.877,44.608 C65.73,44.605 65.788,44.611 65.7,44.599 L65.659,44.597 L65.65,44.592 C65.65,44.592 65.65,44.592 65.649,44.592 C65.624,44.579 65.599,44.565 65.574,44.552 z M65.413,44.385 L65.507,44.516 Q65.388,44.401 65.371,44.222 L65.413,44.385 z M37.541,43.151 L38.376,43.819 L38.892,44.344 L38.376,43.819 L37.541,43.151 z M113.551,36.716 L111.878,43.526 L105.033,44.172 L105.033,44.172 L111.878,43.526 L113.551,36.716 L113.607,36.494 L113.551,36.716 z M188.263,43.262 L189.062,43.737 C190.37,44.241 190.37,44.241 189.062,43.738 L188.263,43.262 z M105.377,42.749 L105.376,42.749 L105.073,43.032 L105.377,42.749 z M191.113,42.626 L191.133,42.629 L191.132,42.629 L191.113,42.626 z M191.969,41.709 C191.719,42.018 191.826,41.926 191.697,42.033 C191.655,42.083 191.68,42.06 191.617,42.099 C191.383,42.27 191.117,42.406 190.868,42.555 L190.867,42.555 L191.617,42.099 L191.697,42.033 L192.191,41.436 L191.969,41.709 z M90.522,41.987 L90.61,42.135 L90.522,41.987 L90.285,42.427 L90.522,41.987 z M86.171,42.008 L86.178,42.08 Q86.191,42.223 86.258,42.362 L86.3,42.415 L86.258,42.361 Q86.191,42.223 86.178,42.08 L86.171,42.008 z M97.168,41.608 L97.535,42.112 L97.865,42.406 L97.534,42.113 L97.168,41.608 z M35.807,41.924 L35.811,41.927 L35.823,41.933 C35.844,41.943 35.83,41.938 35.866,41.94 C35.83,41.938 35.844,41.943 35.823,41.933 L35.811,41.927 L35.807,41.924 z M35.714,41.847 L35.728,41.858 C35.724,41.856 35.721,41.853 35.718,41.85 C35.718,41.85 35.718,41.85 35.718,41.85 L35.693,41.83 L35.714,41.847 z M96.525,39.08 Q96.524,39.441 96.554,39.765 L96.678,40.434 L96.554,39.764 Q96.524,39.441 96.525,39.08 z M142.298,39.808 L142.337,39.824 C143.433,40.192 143.433,40.192 142.337,39.825 L142.298,39.808 z M142.017,39.692 L142.017,39.692 L142.005,39.682 L142.017,39.692 z M45.542,38.895 L45.542,38.895 L46.257,39.689 L45.542,38.895 z M141.685,39.544 L141.753,39.572 L141.809,39.595 L141.753,39.572 L141.685,39.544 z M114.322,39.275 C114.388,39.489 114.352,39.386 114.43,39.586 C114.352,39.386 114.388,39.489 114.322,39.275 z M141.548,39.501 L141.622,39.522 L141.548,39.501 L141.548,39.501 z M122.506,39.434 L122.531,39.44 L122.531,39.44 L122.506,39.434 z M151.402,38.413 L150.676,38.912 L149.851,39.339 L150.676,38.912 L151.402,38.413 z M120.74,37.412 C120.942,38.348 120.783,37.905 121.208,38.742 L121.209,38.742 L121.332,38.882 L121.208,38.742 Q120.811,38.165 120.74,37.412 z M203.002,35.486 L202.536,37.442 L202.131,38.655 L202.536,37.442 Q203.002,35.481 203.47,33.539 L203.002,35.486 z M191.042,37.836 L191.502,38.156 L191.889,38.547 L191.502,38.156 L191.042,37.836 z M172.43,38.181 Q172.269,38.197 172.09,38.214 L170.844,38.186 L172.09,38.214 Q172.269,38.197 172.43,38.181 z M100.082,36.918 L100.452,37.295 L100.905,37.582 C101.325,37.766 101.325,37.766 100.905,37.582 C100.754,37.486 100.603,37.391 100.453,37.295 C100.453,37.295 100.453,37.295 100.452,37.295 L100.082,36.918 L100.082,36.918 z M167.289,36.41 L167.413,36.557 L168.454,37.406 L168.646,37.498 L169.01,37.662 C168.692,37.52 168.813,37.577 168.646,37.498 L168.466,37.416 C168.466,37.416 168.466,37.416 168.466,37.416 L168.454,37.406 C168.081,37.163 167.756,36.842 167.413,36.557 L167.289,36.41 z M178.432,36.772 L178.936,37.008 Q180.003,37.395 181.154,37.324 Q180.003,37.396 178.937,37.009 L178.432,36.772 z M152.712,36.146 L152.619,36.506 L152.374,37.21 L152.619,36.506 L152.712,36.146 z M57.067,36.688 C57.033,36.835 57.05,36.761 57.016,36.909 L57.016,36.91 Q57.042,36.798 57.067,36.688 z M166.562,35.446 C166.865,35.975 166.667,35.675 167.204,36.31 C166.667,35.675 166.865,35.975 166.562,35.447 z M57.254,35.983 L57.228,36.094 L57.196,36.229 L57.228,36.094 L57.253,35.983 L57.254,35.983 z M193.656,36.068 L193.405,36.096 L192.283,36.113 L193.405,36.096 Q193.656,36.072 193.905,36.031 L193.656,36.068 z M186.749,34.513 L186.443,34.927 L185.498,35.846 L186.443,34.927 L186.749,34.513 z M172.362,35.25 L172.534,35.641 L172.534,35.641 Q172.321,35.299 172.271,34.762 L172.362,35.25 z M188.841,34.745 L189.221,35.063 L190.191,35.596 L189.221,35.063 L188.841,34.745 z M62.569,35.169 C62.61,35.169 62.575,35.169 62.672,35.185 C62.575,35.169 62.61,35.169 62.569,35.169 z M38.203,32.97 L38.364,33.452 L38.529,33.752 L38.859,34.173 L39.147,34.427 L39.22,34.491 C39.624,34.822 39.419,34.664 39.836,34.968 C39.594,34.804 39.367,34.62 39.147,34.427 L38.859,34.173 L38.859,34.173 C38.542,33.782 38.63,33.937 38.529,33.752 C38.383,33.566 38.436,33.667 38.364,33.452 C38.27,33.281 38.35,33.431 38.203,32.97 z M44.844,34.947 C45.163,34.953 45.163,34.953 44.844,34.947 z M45.456,34.926 Q45.402,34.931 45.331,34.937 C45.001,34.956 45.001,34.956 45.33,34.937 Q45.402,34.931 45.456,34.926 z M153.488,33.015 C153.488,33.015 153.488,33.015 153.488,33.015 C153.436,33.24 153.383,33.465 153.33,33.69 L153.33,33.69 L153.148,34.394 L153.021,34.908 L153.148,34.394 L153.33,33.69 L153.488,33.015 z M43.001,34.389 L43.077,34.427 L43.13,34.453 L43.077,34.427 L43.001,34.389 z M79.569,34.073 C80.007,34.209 79.795,34.129 80.203,34.311 C79.795,34.129 80.006,34.209 79.569,34.073 z M211.794,34.151 L212.503,34.242 Q213.343,34.326 214.207,34.281 Q213.343,34.326 212.503,34.242 L211.794,34.151 z M88.249,32.989 L88.091,33.66 L87.97,34.155 L88.091,33.66 L88.249,32.989 L88.249,32.989 z M209.941,33.707 L210.852,33.982 L211.5,34.104 L210.852,33.982 L209.941,33.707 z M103.763,32.613 Q104.234,33.001 104.576,33.566 L104.67,33.755 L104.576,33.566 L104.201,33.045 L103.763,32.613 z M99.634,33.363 L99.535,33.408 L98.954,33.737 L99.535,33.408 Q99.639,33.362 99.725,33.319 L99.634,33.363 z M193.951,33.541 L194.059,33.63 C194.256,33.709 194.182,33.704 194.266,33.707 C194.182,33.704 194.256,33.709 194.059,33.63 L193.951,33.541 z M187.671,33.047 L187.671,33.047 L187.472,33.415 L187.671,33.047 z M193.633,33.092 L193.719,33.283 L193.755,33.326 L193.719,33.282 Q193.629,33.11 193.553,32.865 L193.633,33.092 z M48.143,32.358 Q48.145,32.575 48.097,32.832 L47.979,33.266 L48.097,32.832 Q48.145,32.575 48.143,32.358 z M100.55,33.154 L100.777,33.165 L100.814,33.171 C100.933,33.192 100.891,33.183 100.942,33.193 C101.017,33.206 100.979,33.199 101.054,33.215 C101.111,33.226 101.063,33.217 101.197,33.245 L101.219,33.25 L101.219,33.25 L101.197,33.245 L101.054,33.215 L100.942,33.193 L100.814,33.171 L100.777,33.165 L100.55,33.154 z M183.444,32.84 L183.444,32.84 L183.45,32.912 Q183.464,33.056 183.531,33.194 L183.568,33.24 L183.531,33.194 Q183.464,33.056 183.45,32.912 L183.444,32.84 z M124.288,31.804 L124.38,32.296 L124.379,32.921 L124.38,32.296 L124.288,31.804 z M183.459,32.622 C183.435,32.712 183.44,32.671 183.437,32.744 C183.44,32.671 183.435,32.712 183.459,32.622 L183.457,32.509 L183.459,32.622 z M140.462,32.511 L139.81,32.578 L139.08,32.557 L139.81,32.578 L140.462,32.511 z M206.562,31.405 L207.222,32.118 L207.575,32.398 L207.222,32.118 L206.562,31.405 z M142.825,31.087 L142.019,31.845 L141.566,32.144 L142.019,31.845 L142.825,31.087 z M40.907,30.581 Q40.011,30.666 39.24,31.118 L38.889,31.369 L39.24,31.118 Q40.011,30.666 40.907,30.581 z M116.795,23.175 L114.847,31.278 L114.847,31.278 L116.795,23.175 L116.795,23.175 z M213.353,29.443 L212.528,29.521 C212.822,30.461 212.605,29.94 213.284,31.037 C212.605,29.94 212.822,30.461 212.528,29.521 L213.353,29.443 z M224.653,26.571 L224.64,26.601 C224.385,27.146 224.181,27.714 223.916,28.254 C223.849,28.407 223.885,28.334 223.808,28.474 C223.541,28.978 223.257,29.474 222.98,29.972 L222.953,30.021 L222.41,30.78 L222.953,30.021 L222.98,29.972 L223.808,28.474 L223.916,28.254 L224.64,26.601 L224.653,26.571 L224.653,26.571 z M141.649,28.82 L141.856,29.149 C142.216,29.476 142.045,29.347 142.356,29.557 C142.045,29.347 142.216,29.476 141.856,29.149 L141.649,28.82 z M45.356,29.147 C45.651,29.238 45.509,29.186 45.783,29.299 C45.509,29.187 45.651,29.238 45.356,29.147 z M155.778,23.588 Q155.433,24.922 155.124,26.253 C154.807,27.622 154.919,27.14 154.789,27.699 C154.696,28.104 154.602,28.51 154.508,28.915 L154.508,28.915 L154.789,27.699 C154.901,27.217 155.013,26.735 155.124,26.253 Q155.433,24.922 155.778,23.588 z M141.82,26.673 L141.631,27.344 Q141.59,27.673 141.56,27.929 L141.544,28.147 L141.56,27.928 Q141.59,27.673 141.631,27.344 L141.82,26.673 z M212.691,26.649 L212.648,26.956 L212.62,27.172 L212.604,27.31 L212.587,27.454 L212.587,27.454 L212.604,27.31 C212.619,27.18 212.613,27.226 212.62,27.172 C212.637,27.032 212.627,27.104 212.648,26.956 C212.664,26.838 212.65,26.941 212.691,26.649 z M220.642,26.046 L219.966,26.722 L219.153,27.321 L219.966,26.722 L220.642,26.046 z M167.438,24.012 L167.329,24.524 L166.913,25.742 L167.328,24.524 Q167.46,24.006 167.505,23.513 L167.438,24.012 z M144.23,23.691 L143.036,24.789 L142.522,25.395 L143.036,24.789 Q144.171,23.597 145.541,22.781 L144.23,23.691 z M175.124,24.562 L176.241,24.714 L176.906,24.926 L176.241,24.714 L175.124,24.562 z M197.939,24.555 L197.959,24.566 L198.127,24.641 L197.959,24.566 L197.939,24.555 z M221.165,22.953 L221.292,23.524 L221.305,24.448 L221.292,23.524 L221.165,22.953 z M216.4,22.113 C216.983,22.155 216.742,22.089 217.139,22.243 C216.742,22.089 216.983,22.155 216.4,22.113 z M216.35,22.11 L215.714,22.22 L216.35,22.11 L216.35,22.11 z M217.79,20.806 C217.819,20.812 217.806,20.809 217.829,20.813 C217.806,20.809 217.819,20.812 217.79,20.806 z M160.721,20.023 L161.004,20.149 L161.004,20.149 L160.721,20.023 z M159.878,19.899 L160.366,19.957 L159.879,19.899 L159.373,19.922 L158.66,20.051 L159.373,19.922 L159.878,19.899 z M81.664,46.175 L81.159,45.939 L81.664,46.175 C83.114,46.539 83.114,46.539 81.664,46.175 z M93.597,44.465 L92.486,43.819 C91.642,43.329 92.084,43.639 91.202,42.836 L90.849,42.417 L91.203,42.836 C92.084,43.639 91.642,43.329 92.486,43.819 C93.886,44.632 93.19,44.33 94.55,44.78 L93.597,44.465 z M74.98,43.217 L74.98,43.217 L75.017,42.987 L75.017,42.987 C75.029,42.784 75.023,42.856 75.031,42.771 C75.037,42.678 75.032,42.724 75.044,42.632 C75.052,42.55 75.045,42.62 75.072,42.422 L75.044,42.632 L75.031,42.771 L75.017,42.987 L74.98,43.217 C74.975,43.38 74.975,43.38 74.98,43.217 z M65.557,43.129 L65.585,43.044 Q65.556,43.12 65.53,43.231 L65.557,43.129 z M116.921,42.65 L116.146,42.151 L116.046,42.086 L115.905,41.94 L116.046,42.086 L116.146,42.151 L116.921,42.649 C116.921,42.649 116.921,42.65 116.921,42.65 C117.248,42.759 117.575,42.868 117.902,42.977 L116.921,42.65 z M34.08,40.73 L32.683,39.585 L32.64,39.55 L32.024,38.89 L32.64,39.55 L32.683,39.585 C34.421,41.01 33.586,40.385 35.166,41.488 L34.08,40.73 z M192.505,39.982 C192.501,39.927 192.503,39.952 192.498,39.906 L192.387,39.422 L192.498,39.906 Q192.502,39.942 192.504,39.96 Q192.505,39.978 192.509,40.014 L192.505,39.982 z M127.471,37.177 L127.538,36.995 L127.977,35.715 L127.989,35.68 L127.989,35.68 L127.977,35.715 C127.825,36.139 127.696,36.572 127.538,36.995 C127.496,37.117 127.519,37.057 127.471,37.177 C127.307,37.599 127.133,38.019 126.964,38.439 L127.471,37.177 z M141.958,39.643 L141.861,39.615 L141.958,39.643 L141.958,39.643 L141.993,39.672 C141.993,39.672 141.993,39.672 141.993,39.672 L141.958,39.643 z M66.477,38.739 L66.467,38.586 Q66.481,38.73 66.479,38.91 L66.477,38.739 z M58.676,38.416 L58.896,38.439 L58.676,38.416 L58.676,38.416 z M181.333,37.306 L182.943,37.036 L181.333,37.306 L181.293,37.31 L181.333,37.306 z M195.773,35.491 L196.012,35.382 L196.358,35.204 L196.358,35.204 C196.031,35.374 196.149,35.32 196.012,35.382 C195.857,35.462 195.937,35.426 195.773,35.491 C195.632,35.555 195.753,35.5 195.405,35.637 L195.773,35.491 z M79.361,35.744 L79.774,35.768 L79.361,35.744 L79.361,35.744 z M43.341,34.547 L43.241,34.504 L43.341,34.546 L43.605,34.662 L43.341,34.547 z M99.919,33.264 C100.053,33.215 100.053,33.215 99.919,33.264 L99.817,33.283 L99.919,33.264 z M172.547,32.132 L172.547,32.132 C172.615,31.861 172.585,31.984 172.639,31.762 Q172.613,31.873 172.547,32.132 C172.467,32.501 172.467,32.501 172.547,32.132 z M116.822,32.674 L116.855,32.644 L116.963,32.634 L116.999,32.63 C117.471,32.652 117.471,32.652 116.999,32.63 L116.963,32.634 L116.855,32.644 Q116.823,32.684 116.787,32.686 L116.822,32.674 z M183.526,32.182 L183.526,32.182 L183.526,32.134 L183.526,32.087 L183.547,32.017 L183.547,32.017 L183.55,32.009 L183.568,31.968 L183.574,31.925 C183.572,31.938 183.571,31.952 183.569,31.966 C183.569,31.966 183.568,31.967 183.568,31.968 C183.568,31.968 183.568,31.969 183.568,31.969 C183.562,31.983 183.556,31.996 183.55,32.009 L183.547,32.017 Q183.516,32.075 183.526,32.182 C183.489,32.3 183.489,32.3 183.526,32.182 z M205.568,24.936 C205.814,23.899 206.06,22.863 206.307,21.826 L206.307,21.826 Q205.84,23.787 205.375,25.748 L205.568,24.936 z M176.634,26.576 L177.047,26.601 L176.634,26.576 L176.634,26.576 z M185.364,24.492 L185.364,24.492 L185.292,24.789 L185.364,24.492 z M197.609,24.491 C197.688,24.495 197.688,24.495 197.609,24.491 L197.609,24.491 z M167.298,21.621 L167.254,21.501 L166.819,20.649 C166.942,20.943 167.146,21.2 167.254,21.501 L167.284,21.559 L167.298,21.621 C167.383,21.926 167.438,22.245 167.505,22.555 L167.298,21.621 z M146.851,22.079 L146.89,22.061 C147.044,21.988 146.968,22.023 147.117,21.958 C147.255,21.895 147.138,21.948 147.473,21.804 L147.473,21.803 L147.117,21.958 L146.89,22.061 L146.52,22.236 L146.851,22.079 z" clip-path="url(#Clip_5)" filter="url(#Shadow_6)" fill="rgba(0,0,0,0.75)"/>
      <g>
        <path d="M42.102,28.637 Q42.806,28.625 43.389,28.679 Q43.643,28.691 43.901,28.739 Q44.158,28.787 44.416,28.835 Q45.746,29.144 46.897,29.849 Q48.048,30.554 48.144,31.954 Q48.161,32.134 48.163,32.35 Q48.165,32.567 48.117,32.825 Q47.951,33.744 47.221,34.246 Q46.491,34.749 45.602,34.905 Q45.53,34.912 45.476,34.917 Q45.423,34.922 45.351,34.929 Q45.1,34.952 44.864,34.938 Q44.628,34.924 44.409,34.909 Q44.152,34.861 43.889,34.759 Q43.626,34.657 43.362,34.537 L43.221,34.478 C42.929,34.334 43.059,34.392 42.833,34.298 Q43.035,34.134 43.186,34.012 Q43.337,33.889 43.47,33.768 Q43.672,33.604 43.795,33.376 Q43.918,33.147 43.985,32.707 Q44.007,32.561 44.014,32.434 Q44.02,32.306 44.01,32.199 Q43.925,31.303 43.002,30.902 Q42.078,30.501 41.036,30.563 Q41,30.566 40.982,30.568 Q40.964,30.57 40.928,30.573 Q40.033,30.657 39.262,31.11 Q38.491,31.562 38.282,32.413 Q38.26,32.559 38.235,32.688 Q38.211,32.817 38.225,32.96 Q38.325,33.638 38.88,34.164 Q39.436,34.69 40.053,35.102 Q40.36,35.29 40.628,35.445 Q40.896,35.601 41.124,35.724 Q41.353,35.847 41.602,36.004 Q41.852,36.162 42.116,36.281 Q43.958,37.409 45.561,38.885 Q47.164,40.361 47.386,42.726 Q47.44,43.299 47.388,43.901 Q47.337,44.502 47.186,45.203 Q46.43,48.311 43.224,50.348 Q40.017,52.385 36.21,53.032 Q35.819,53.105 35.427,53.16 Q35.034,53.215 34.64,53.253 Q32.455,53.458 30.419,53.144 Q28.383,52.829 26.819,51.964 Q25.677,51.349 24.948,50.333 Q24.22,49.317 24.005,48.181 Q23.959,48.076 23.947,47.951 Q23.935,47.826 23.922,47.682 Q23.794,46.321 24.492,45.098 Q25.19,43.876 26.801,43.326 Q27.081,43.228 27.366,43.183 Q27.651,43.138 27.938,43.111 Q28.69,43.04 29.411,43.207 Q30.132,43.374 30.651,43.904 Q30.89,44.134 30.99,44.233 Q31.089,44.332 31.096,44.404 Q31.096,44.404 31.098,44.422 Q31.1,44.44 31.067,44.479 Q31.035,44.518 30.916,44.602 Q30.797,44.685 30.632,44.845 Q30.599,44.885 30.549,44.926 Q30.498,44.966 30.43,45.009 Q30.099,45.329 29.797,45.774 Q29.496,46.218 29.468,46.69 Q29.459,46.98 29.432,47.272 Q29.405,47.564 29.429,47.815 Q29.65,49.782 31.21,50.611 Q32.771,51.44 34.598,51.268 Q34.67,51.262 34.741,51.255 Q34.813,51.248 34.885,51.241 Q36.562,51.011 37.95,50.013 Q39.339,49.015 39.642,47.251 Q39.687,46.957 39.701,46.721 Q39.715,46.485 39.691,46.234 Q39.556,44.801 38.396,43.807 Q37.237,42.814 35.888,41.929 Q35.852,41.932 35.833,41.916 Q35.813,41.9 35.774,41.867 Q35.735,41.835 35.715,41.818 Q35.695,41.802 35.659,41.806 Q34.043,40.765 32.663,39.539 Q31.282,38.313 31.096,36.343 Q31.085,35.838 31.127,35.328 Q31.17,34.817 31.295,34.227 Q31.787,32.157 33.871,30.876 Q35.956,29.595 38.362,29.043 Q38.965,28.914 39.535,28.824 Q40.105,28.735 40.678,28.681 Q41.398,28.649 42.102,28.637 z M116.798,23.178 L114.849,31.278 Q115.662,30.696 116.636,30.297 Q117.611,29.898 118.611,29.768 Q118.751,29.718 118.894,29.705 Q119.037,29.691 119.181,29.678 Q119.862,29.614 120.517,29.66 Q121.172,29.707 121.765,29.868 Q122.724,30.067 123.503,30.663 Q124.282,31.258 124.38,32.297 Q124.501,33.587 123.634,34.554 Q122.767,35.522 121.704,36.128 Q121.463,36.259 121.221,36.372 Q120.978,36.485 120.734,36.581 Q120.715,36.763 120.718,36.98 Q120.72,37.197 120.74,37.412 Q120.811,38.164 121.209,38.741 Q121.607,39.318 122.448,39.42 Q122.523,39.449 122.63,39.439 Q122.738,39.429 122.845,39.419 Q123.024,39.402 123.182,39.351 Q123.34,39.3 123.48,39.25 Q124.385,38.876 124.882,38.016 Q125.379,37.156 125.689,36.223 Q125.806,35.923 125.886,35.626 Q125.967,35.329 126.047,35.032 L127.988,35.681 Q127.543,37.097 126.949,38.472 Q126.356,39.847 125.264,40.926 Q124.371,41.805 123.122,42.357 Q121.872,42.908 120.152,43.07 Q118.934,43.185 117.902,42.975 Q116.87,42.765 116.047,42.083 Q115.184,41.369 114.749,40.398 Q114.314,39.426 114.07,38.365 Q113.997,37.974 113.924,37.583 Q113.851,37.193 113.817,36.834 Q113.853,36.831 113.905,36.808 Q113.957,36.785 113.99,36.746 Q114.266,36.611 114.561,36.475 Q114.855,36.339 115.132,36.204 Q115.926,35.804 116.638,35.303 Q117.35,34.803 117.748,34.042 Q117.871,33.814 117.906,33.612 Q117.941,33.409 117.928,33.266 Q117.862,32.947 117.628,32.77 Q117.395,32.593 117.001,32.63 L116.965,32.634 C116.881,32.642 116.917,32.638 116.857,32.644 Q116.825,32.683 116.789,32.686 Q116.753,32.69 116.717,32.693 Q115.695,32.97 114.968,33.888 Q114.241,34.806 113.83,35.821 Q113.743,36.046 113.674,36.269 Q113.605,36.493 113.553,36.714 L111.88,43.523 L105.036,44.168 L105.38,42.745 C104.78,43.304 105.159,42.986 104.191,43.633 Q103.127,44.239 101.809,44.634 Q100.49,45.029 99.093,45.161 L98.981,45.172 C98.702,45.198 98.82,45.187 98.627,45.205 Q96.539,45.293 94.556,44.775 Q92.573,44.256 91.21,42.83 C90.554,42.033 90.741,42.343 90.53,41.982 C89.759,43.398 90.203,42.692 89.177,44.088 Q87.509,46.143 84.069,46.467 Q84.033,46.47 83.98,46.475 Q83.926,46.48 83.89,46.484 Q82.74,46.556 81.673,46.168 Q80.606,45.781 80,44.717 Q79.117,45.704 77.933,46.376 Q76.749,47.047 75.469,47.276 Q75.329,47.326 75.168,47.341 Q75.007,47.356 74.828,47.373 Q73.57,47.455 72.362,47.099 Q71.153,46.743 70.153,45.716 C69.392,44.817 69.658,45.228 69.268,44.547 C68.837,45.325 69.143,44.811 68.248,46.022 Q66.547,48.116 63.251,48.427 Q63.036,48.447 62.819,48.449 Q62.602,48.451 62.387,48.472 Q61.481,48.448 60.627,48.204 Q59.772,47.959 59.167,47.293 Q58.762,46.825 58.548,46.284 Q58.335,45.744 58.281,45.171 Q58.254,44.884 58.263,44.594 Q58.271,44.304 58.284,44.05 Q58.337,43.467 58.48,42.875 Q58.623,42.283 58.755,41.764 Q58.781,41.653 58.865,41.393 Q58.949,41.132 59.062,40.796 Q59.081,40.613 59.119,40.447 Q59.158,40.28 59.213,40.095 Q59.257,39.801 59.286,39.527 Q59.314,39.254 59.294,39.039 Q59.267,38.752 59.123,38.567 Q58.979,38.381 58.692,38.408 Q58.334,38.442 57.9,38.826 Q57.467,39.211 56.935,40.092 Q56.19,41.391 55.714,42.864 Q55.238,44.337 54.839,45.856 Q54.688,46.557 54.535,47.241 Q54.383,47.924 54.228,48.589 Q54.199,48.664 54.172,48.757 Q54.144,48.85 54.119,48.961 L47.454,49.588 Q48.232,46.334 49.012,43.097 Q49.792,39.861 50.606,36.603 L57.271,35.975 Q57.245,36.086 57.219,36.197 Q57.193,36.308 57.168,36.419 Q57.11,36.569 57.084,36.68 Q57.058,36.791 57.032,36.902 Q57.813,36.358 58.802,35.922 Q59.791,35.485 60.856,35.277 Q61.032,35.224 61.211,35.207 Q61.39,35.19 61.569,35.173 Q62.608,35.075 63.59,35.326 Q64.571,35.577 65.362,36.298 Q65.875,36.756 66.148,37.345 Q66.42,37.934 66.481,38.579 Q66.494,38.722 66.493,38.903 Q66.492,39.084 66.47,39.231 Q66.451,39.413 66.43,39.578 Q66.41,39.742 66.355,39.928 Q66.281,40.297 66.173,40.686 Q66.065,41.076 65.995,41.48 Q65.885,41.852 65.777,42.242 Q65.669,42.632 65.599,43.036 Q65.57,43.111 65.544,43.222 Q65.518,43.333 65.496,43.48 Q65.467,43.555 65.44,43.648 Q65.412,43.74 65.422,43.848 Q65.393,43.923 65.385,44.032 Q65.378,44.141 65.384,44.213 Q65.401,44.392 65.521,44.507 Q65.64,44.623 65.891,44.599 Q66.106,44.579 66.296,44.489 Q66.486,44.399 66.691,44.271 Q67.094,43.944 67.5,43.454 Q67.906,42.964 68.22,42.464 C68.479,42.04 68.386,42.213 68.52,41.956 C68.413,40.935 68.749,39.953 69.107,39.019 Q69.84,37.395 71.104,36.228 Q72.068,35.342 73.381,34.694 Q74.694,34.046 76.12,33.84 Q76.26,33.79 76.422,33.775 Q76.583,33.76 76.726,33.746 Q77.873,33.639 78.98,33.878 Q80.087,34.117 81.014,34.753 L81.271,33.644 Q83.027,33.479 84.765,33.315 Q86.503,33.151 88.259,32.986 L88.1,33.656 C87.713,35.239 87.875,34.562 87.609,35.686 Q87.265,37.02 86.94,38.37 Q86.615,39.72 86.31,41.086 Q86.313,41.122 86.283,41.179 Q86.252,41.237 86.262,41.344 Q86.233,41.419 86.209,41.548 Q86.185,41.677 86.195,41.784 Q86.166,41.859 86.173,41.931 Q86.179,42.003 86.186,42.074 Q86.2,42.217 86.267,42.356 Q86.334,42.494 86.481,42.516 Q86.556,42.545 86.647,42.555 Q86.738,42.564 86.842,42.518 Q87.057,42.498 87.246,42.39 Q87.435,42.282 87.64,42.154 Q88.01,41.866 88.367,41.435 Q88.724,41.004 89.006,40.543 Q89.292,40.119 89.487,39.703 L89.635,39.371 C89.514,38.304 89.909,37.296 90.347,36.35 Q91.21,34.769 92.702,33.725 Q93.688,33.054 95.154,32.5 Q96.62,31.946 98.19,31.726 Q98.401,31.67 98.581,31.653 Q98.76,31.636 98.939,31.619 Q100.3,31.491 101.549,31.699 Q102.798,31.907 103.768,32.611 Q104.238,33 104.581,33.565 Q104.923,34.129 105.055,34.767 Q105.062,34.839 105.067,34.892 Q105.072,34.946 105.079,35.018 Q105.123,35.484 105.005,35.965 Q104.888,36.446 104.599,36.834 Q104.249,37.337 103.732,37.603 Q103.214,37.868 102.605,37.926 Q102.534,37.933 102.444,37.941 Q102.354,37.949 102.244,37.924 Q101.918,37.918 101.565,37.825 Q101.213,37.731 100.91,37.579 Q100.417,37.336 100.088,36.916 Q99.759,36.495 99.64,36 Q99.637,35.964 99.634,35.928 Q99.63,35.892 99.624,35.821 Q99.584,35.788 99.581,35.752 Q99.578,35.716 99.574,35.681 Q99.497,34.856 99.977,34.197 Q100.457,33.537 101.225,33.248 Q101.003,33.196 100.783,33.163 Q100.563,33.129 100.316,33.189 Q100.208,33.199 100.119,33.207 Q100.029,33.216 99.925,33.262 Q99.817,33.272 99.731,33.316 Q99.645,33.36 99.541,33.406 Q98.327,33.954 97.54,35.384 Q96.753,36.814 96.575,38.385 Q96.534,38.714 96.532,39.076 Q96.53,39.438 96.56,39.76 Q96.728,41.154 97.54,42.108 Q98.353,43.062 100.001,42.907 Q102.76,42.647 104.337,40.962 C105.427,39.844 106.148,38.453 106.76,37.035 L109.954,23.822 L116.798,23.178 z M79.372,35.739 Q79.193,35.756 79.017,35.808 Q78.841,35.861 78.669,35.949 Q78.015,36.3 77.402,37.081 Q76.788,37.862 76.328,38.736 Q75.988,39.347 75.736,39.931 Q75.484,40.515 75.377,40.923 Q75.352,41.034 75.286,41.293 Q75.22,41.552 75.178,41.881 Q75.13,42.139 75.084,42.414 Q75.038,42.69 75.029,42.98 Q74.977,43.202 74.983,43.454 Q74.989,43.707 75.009,43.922 Q75.06,44.459 75.272,44.801 Q75.485,45.142 75.951,45.098 Q76.99,45 77.716,44.064 Q78.441,43.129 78.916,42.035 Q79.188,41.468 79.356,40.946 Q79.524,40.424 79.666,40.013 Q79.991,38.862 80.129,38.017 Q80.266,37.173 80.212,36.599 Q80.172,36.17 80.023,35.93 Q79.874,35.691 79.372,35.739 z M206.287,21.84 Q205.821,23.8 205.355,25.759 Q204.888,27.719 204.419,29.643 Q203.917,31.606 203.449,33.548 Q202.981,35.49 202.515,37.45 Q201.92,39.964 199.614,41.772 Q197.308,43.58 194.618,44.194 Q194.263,44.264 193.925,44.314 Q193.586,44.364 193.263,44.394 Q192.153,44.499 191.072,44.347 Q189.991,44.196 189.045,43.743 Q188.177,43.355 187.583,42.615 Q186.989,41.876 186.768,41.065 Q186.716,40.889 186.683,40.73 Q186.649,40.57 186.633,40.391 Q186.584,39.492 187.054,38.725 Q187.524,37.957 188.722,37.628 Q188.794,37.621 188.864,37.596 Q188.934,37.572 189.041,37.562 Q189.113,37.555 189.185,37.548 Q189.256,37.541 189.328,37.535 Q190.618,37.413 191.484,38.163 Q192.35,38.913 192.48,39.913 Q192.483,39.949 192.485,39.967 Q192.487,39.985 192.49,40.02 Q192.558,40.737 192.172,41.442 Q191.787,42.147 190.85,42.561 Q190.925,42.59 191.017,42.617 Q191.11,42.645 191.218,42.635 Q191.293,42.664 191.384,42.673 Q191.476,42.683 191.547,42.676 Q193.414,42.536 194.321,41.041 Q195.229,39.546 195.719,37.837 Q195.906,37.132 196.058,36.449 Q196.211,35.766 196.339,35.212 Q195.894,35.471 195.386,35.645 Q194.878,35.819 194.383,35.938 Q194.136,35.997 193.887,36.039 Q193.638,36.081 193.387,36.104 Q191.093,36.32 189.204,35.07 C187.986,34.036 188.538,34.678 187.655,33.055 C187.008,34.244 187.401,33.607 186.426,34.934 Q184.758,36.989 181.318,37.313 L181.278,37.316 C181.166,37.327 181.212,37.322 181.139,37.329 Q179.989,37.401 178.922,37.014 Q177.855,36.626 177.249,35.563 Q176.366,36.55 175.182,37.221 Q173.998,37.893 172.718,38.122 Q172.578,38.171 172.417,38.187 Q172.256,38.202 172.077,38.219 Q170.819,38.301 169.611,37.945 Q168.402,37.588 167.402,36.562 Q166.644,35.802 166.255,34.935 Q165.866,34.068 165.778,33.136 Q165.623,31.488 166.356,29.864 Q167.089,28.241 168.352,27.073 Q169.317,26.187 170.63,25.54 Q171.943,24.892 173.369,24.685 Q173.509,24.636 173.671,24.621 Q173.832,24.606 173.975,24.592 Q175.122,24.484 176.229,24.723 Q177.336,24.963 178.263,25.598 L178.52,24.49 Q180.276,24.324 182.014,24.161 Q183.752,23.997 185.508,23.832 Q185.353,24.497 185.183,25.182 Q185.012,25.867 184.858,26.532 Q184.514,27.866 184.189,29.216 Q183.864,30.566 183.559,31.932 Q183.562,31.968 183.532,32.025 Q183.501,32.082 183.511,32.19 Q183.482,32.265 183.458,32.394 Q183.434,32.522 183.444,32.63 Q183.415,32.705 183.422,32.777 Q183.428,32.848 183.435,32.92 Q183.449,33.063 183.516,33.201 Q183.583,33.34 183.73,33.362 Q183.805,33.391 183.896,33.401 Q183.987,33.41 184.091,33.364 Q184.306,33.344 184.495,33.236 Q184.684,33.128 184.889,33 Q185.259,32.712 185.616,32.281 Q185.973,31.849 186.255,31.389 Q186.541,30.965 186.736,30.549 Q186.932,30.132 187.016,29.872 Q187.045,29.796 187.074,29.721 L187.079,29.709 C187.077,27.882 188.114,26.797 189.102,25.536 Q191.436,23.057 194.454,22.484 Q194.634,22.467 194.829,22.43 Q195.024,22.394 195.203,22.377 Q196.243,22.279 197.275,22.489 Q198.307,22.699 199.26,23.224 L199.443,22.484 L206.287,21.84 z M176.621,26.584 Q176.442,26.601 176.266,26.654 Q176.09,26.707 175.918,26.795 Q175.264,27.146 174.651,27.927 Q174.037,28.707 173.577,29.582 Q173.237,30.193 172.985,30.777 Q172.732,31.361 172.626,31.768 Q172.601,31.879 172.535,32.138 Q172.469,32.398 172.427,32.727 Q172.379,32.985 172.333,33.26 Q172.287,33.535 172.278,33.826 Q172.226,34.047 172.232,34.3 Q172.238,34.552 172.258,34.767 Q172.308,35.305 172.521,35.646 Q172.734,35.988 173.2,35.944 Q174.239,35.846 174.964,34.91 Q175.69,33.974 176.165,32.881 Q176.437,32.313 176.605,31.791 Q176.773,31.27 176.915,30.859 Q177.24,29.707 177.378,28.863 Q177.515,28.018 177.461,27.445 Q177.421,27.015 177.272,26.776 Q177.123,26.537 176.621,26.584 z M197.59,24.502 Q197.537,24.507 197.465,24.514 Q197.143,24.544 196.801,24.757 Q196.46,24.97 196.128,25.29 Q195.472,26.003 194.872,27.108 Q194.271,28.213 193.909,29.367 Q193.625,30.189 193.501,30.978 Q193.376,31.767 193.434,32.376 Q193.457,32.627 193.534,32.873 Q193.612,33.119 193.7,33.291 Q193.867,33.528 194.04,33.639 Q194.213,33.749 194.464,33.725 Q195.933,33.587 196.726,32.211 Q197.518,30.835 197.907,29.208 Q198.174,28.207 198.339,27.269 Q198.504,26.332 198.662,25.703 Q198.655,25.631 198.645,25.523 Q198.635,25.416 198.592,25.348 Q198.533,25.1 198.385,24.879 Q198.238,24.658 197.941,24.577 Q197.902,24.545 197.829,24.534 Q197.755,24.523 197.719,24.526 Q197.644,24.497 197.591,24.502 z M159.294,18.063 L160.753,18.155 Q163.489,18.422 165.01,19.218 Q166.221,19.791 166.809,20.658 Q167.396,21.524 167.494,22.563 Q167.538,23.029 167.494,23.521 Q167.45,24.013 167.318,24.532 Q166.694,27.121 164.417,28.474 Q162.141,29.827 159.448,30.406 Q158.738,30.545 158.043,30.647 Q157.347,30.748 156.667,30.812 Q155.986,30.877 155.3,30.887 Q154.614,30.897 154.001,30.919 Q153.815,31.623 153.646,32.326 Q153.477,33.029 153.323,33.694 Q153.136,34.398 152.967,35.101 Q152.798,35.804 152.612,36.508 Q152.281,37.985 150.669,38.914 Q149.058,39.843 147.136,40.169 Q146.924,40.225 146.692,40.247 Q146.459,40.269 146.244,40.289 Q145.133,40.393 144.109,40.273 Q143.086,40.152 142.332,39.826 Q142.257,39.796 142.2,39.766 Q142.143,39.735 142.068,39.706 Q142.032,39.709 142.012,39.693 Q141.993,39.677 141.953,39.644 L141.847,39.614 C141.615,39.519 141.718,39.552 141.542,39.502 Q141.64,39.385 141.737,39.267 Q141.835,39.149 141.932,39.032 Q142.451,38.405 142.84,37.735 Q143.229,37.066 143.406,36.254 Q144.078,33.407 144.772,30.613 Q145.467,27.818 146.143,25.007 Q146.352,24.156 146.691,23.347 Q147.031,22.537 147.468,21.809 Q147.016,21.997 146.515,22.243 Q146.014,22.489 145.536,22.787 Q144.167,23.602 143.032,24.794 Q141.897,25.985 141.627,27.348 Q141.586,27.677 141.556,27.933 Q141.526,28.189 141.546,28.404 Q141.59,28.87 141.851,29.152 Q142.113,29.435 142.534,29.685 Q142.763,29.808 143.007,29.911 Q143.252,30.015 143.556,30.167 Q142.855,31.173 142.015,31.848 Q141.175,32.524 139.806,32.58 Q138.187,32.66 137.252,31.754 Q136.318,30.848 136.193,29.522 Q136.145,29.021 136.204,28.491 Q136.263,27.961 136.466,27.436 Q136.995,25.76 138.641,24.231 Q140.286,22.702 142.629,21.47 Q144.971,20.237 147.875,19.403 Q150.778,18.57 153.824,18.283 C156.981,18.037 155.159,18.139 159.294,18.063 z M159.87,19.906 L159.365,19.93 Q157.861,20.072 156.986,21.148 Q156.111,22.225 155.77,23.595 Q155.426,24.928 155.117,26.259 Q154.809,27.589 154.5,28.92 Q157.34,28.363 158.94,26.929 Q160.54,25.495 161.398,22.703 Q161.537,22.256 161.592,21.89 Q161.648,21.523 161.618,21.2 Q161.551,20.484 160.996,20.156 C160.435,19.909 160.797,20.035 159.87,19.906 z M216.336,20.677 Q217.059,20.681 217.685,20.803 Q217.796,20.829 217.887,20.838 Q217.979,20.848 218.089,20.873 Q219.155,21.062 220.137,21.693 Q221.118,22.323 221.268,23.538 Q221.522,25.467 219.943,26.736 Q218.363,28.005 216.404,28.696 Q215.32,29.087 214.291,29.292 Q213.262,29.498 212.506,29.533 Q212.807,30.806 213.679,31.429 Q214.551,32.051 215.876,31.927 Q218.564,31.674 220.25,29.997 Q221.935,28.32 222.759,25.929 L224.628,26.584 Q223.901,28.46 222.928,30.034 Q221.956,31.607 220.073,32.725 Q218.941,33.373 217.656,33.747 Q216.372,34.121 215.011,34.249 Q214.796,34.27 214.581,34.29 Q214.366,34.31 214.183,34.291 Q213.32,34.336 212.48,34.253 Q211.641,34.169 210.829,33.992 Q208.683,33.471 207.201,32.129 Q205.719,30.786 205.53,28.779 Q205.483,28.278 205.524,27.75 Q205.565,27.222 205.693,26.667 Q206.207,24.45 208.28,23.044 Q210.353,21.638 212.795,21.082 Q213.326,20.96 213.842,20.875 Q214.358,20.791 214.86,20.744 Q215.612,20.673 216.336,20.677 z M216.327,22.124 Q214.998,22.213 214.128,23.343 Q213.259,24.473 212.875,25.774 Q212.737,26.221 212.669,26.661 Q212.602,27.101 212.565,27.467 Q212.991,27.39 213.45,27.275 Q213.909,27.159 214.362,26.972 Q215.69,26.486 216.741,25.555 Q217.792,24.625 217.689,23.152 Q217.632,22.543 217.286,22.323 Q216.94,22.102 216.327,22.124 z" clip-path="url(#Clip_7)" filter="url(#Shadow_8)" fill="rgba(0,0,0,0.75)"/>
        <text transform="matrix(0.995, -0.094, 0.094, 0.995, 122.783, 34.966)">
          <tspan x="-100.148" y="7.5" font-family="Creampuff" font-size="36" fill="#FFFFFF">Snack Page</tspan>
        </text>
      </g>
    </g>
  </g>
</svg>
