<?xml version="1.0" encoding="UTF-8"?>
<!DOCTYPE svg PUBLIC "-//W3C//DTD SVG 1.1//EN" "http://www.w3.org/Graphics/SVG/1.1/DTD/svg11.dtd">
<svg version="1.1" xmlns="http://www.w3.org/2000/svg" xmlns:xlink="http://www.w3.org/1999/xlink" x="0" y="0" width="210" height="320" viewBox="0, 0, 420, 640">
  <defs>
    <clipPath id="Clip_1">
      <path d="M6.08,6.228 L414.92,6.228 L414.92,634.772 L6.08,634.772 z M12.92,14.228 L12.08,14.772 L15.34,19.809 L16.179,19.266 L12.92,14.228 z M18.896,23.464 L18.056,24.007 L21.315,29.044 L22.155,28.501 L18.896,23.464 z M24.871,32.699 L24.032,33.242 L27.291,38.279 L28.131,37.736 L24.871,32.699 z M30.847,41.934 L30.007,42.477 L33.267,47.515 L34.106,46.972 L30.847,41.934 z M36.823,51.169 L35.983,51.713 L39.243,56.75 L40.082,56.207 L36.823,51.169 z M42.799,60.405 L41.959,60.948 L45.218,65.985 L46.058,65.442 L42.799,60.405 z M48.774,69.64 L47.935,70.183 L51.194,75.221 L52.034,74.677 L48.774,69.64 z M54.75,78.875 L53.91,79.419 L57.17,84.456 L58.01,83.913 L54.75,78.875 z M60.726,88.11 L59.886,88.654 L63.146,93.691 L63.985,93.148 L60.726,88.11 z M66.702,97.346 L65.862,97.889 L69.121,102.926 L69.961,102.383 L66.702,97.346 z M72.677,106.581 L71.838,107.124 L75.097,112.162 L75.937,111.618 L72.677,106.581 z M78.653,115.816 L77.814,116.36 L81.073,121.397 L81.913,120.854 L78.653,115.816 z M84.629,125.052 L83.789,125.595 L87.049,130.632 L87.888,130.089 L84.629,125.052 z M90.605,134.287 L89.765,134.83 L93.025,139.867 L93.864,139.324 L90.605,134.287 z M96.58,143.522 L95.741,144.065 L99,149.103 L99.84,148.559 L96.58,143.522 z M102.556,152.757 L101.717,153.301 L104.976,158.338 L105.816,157.795 L102.556,152.757 z M108.532,161.993 L107.692,162.536 L110.952,167.573 L111.791,167.03 L108.532,161.993 z M114.508,171.228 L113.668,171.771 L116.928,176.809 L117.767,176.265 L114.508,171.228 z M120.483,180.463 L119.644,181.007 L122.903,186.044 L123.743,185.501 L120.483,180.463 z M126.459,189.699 L125.62,190.242 L128.879,195.279 L129.719,194.736 L126.459,189.699 z M132.435,198.934 L131.595,199.477 L134.855,204.514 L135.695,203.971 L132.435,198.934 z M138.411,208.169 L137.571,208.712 L140.831,213.75 L141.67,213.206 L138.411,208.169 z M144.387,217.404 L143.547,217.948 L146.807,222.985 L147.646,222.442 L144.387,217.404 z M150.362,226.64 L149.523,227.183 L152.782,232.22 L153.622,231.677 L150.362,226.64 z M156.338,235.875 L155.499,236.418 L158.758,241.456 L159.598,240.912 L156.338,235.875 z M162.314,245.11 L161.474,245.653 L164.734,250.691 L165.573,250.148 L162.314,245.11 z M168.29,254.345 L167.45,254.889 L170.71,259.926 L171.549,259.383 L168.29,254.345 z M174.265,263.581 L173.426,264.124 L176.685,269.161 L177.525,268.618 L174.265,263.581 z M180.241,272.816 L179.402,273.359 L182.661,278.397 L183.501,277.853 L180.241,272.816 z M186.217,282.051 L185.377,282.595 L188.637,287.632 L189.476,287.089 L186.217,282.051 z M192.193,291.286 L191.353,291.83 L194.613,296.867 L195.452,296.324 L192.193,291.286 z M198.168,300.522 L197.329,301.065 L200.588,306.102 L201.428,305.559 L198.168,300.522 z M204.144,309.757 L203.305,310.3 L206.564,315.338 L207.404,314.794 L204.144,309.757 z M210.12,318.992 L209.28,319.535 L212.54,324.573 L213.38,324.03 L210.12,318.992 z M216.096,328.228 L215.256,328.771 L218.516,333.808 L219.355,333.265 L216.096,328.228 z M222.072,337.463 L221.232,338.006 L224.491,343.043 L225.331,342.5 L222.072,337.463 z M228.047,346.698 L227.208,347.241 L230.467,352.279 L231.307,351.736 L228.047,346.698 z M234.023,355.933 L233.183,356.477 L236.443,361.514 L237.283,360.971 L234.023,355.933 z M239.999,365.169 L239.159,365.712 L242.419,370.749 L243.258,370.206 L239.999,365.169 z M245.975,374.404 L245.135,374.947 L248.395,379.985 L249.234,379.441 L245.975,374.404 z M251.95,383.639 L251.111,384.182 L254.37,389.22 L255.21,388.677 L251.95,383.639 z M257.926,392.875 L257.086,393.418 L260.346,398.455 L261.186,397.912 L257.926,392.875 z M263.902,402.11 L263.062,402.653 L266.322,407.69 L267.161,407.147 L263.902,402.11 z M269.878,411.345 L269.038,411.888 L272.297,416.926 L273.137,416.382 L269.878,411.345 z M275.853,420.58 L275.014,421.124 L278.273,426.161 L279.113,425.618 L275.853,420.58 z M281.829,429.816 L280.99,430.359 L284.249,435.396 L285.089,434.853 L281.829,429.816 z M287.805,439.051 L286.965,439.594 L290.225,444.632 L291.064,444.088 L287.805,439.051 z M293.781,448.286 L292.941,448.829 L296.201,453.867 L297.04,453.323 L293.781,448.286 z M299.756,457.521 L298.917,458.065 L302.176,463.102 L303.016,462.559 L299.756,457.521 z M305.732,466.757 L304.893,467.3 L308.152,472.337 L308.992,471.794 L305.732,466.757 z M311.708,475.992 L310.868,476.535 L314.128,481.573 L314.967,481.029 L311.708,475.992 z M317.684,485.227 L316.844,485.77 L320.104,490.808 L320.943,490.265 L317.684,485.227 z M323.659,494.462 L322.82,495.006 L326.079,500.043 L326.919,499.5 L323.659,494.462 z M329.635,503.698 L328.796,504.241 L332.055,509.278 L332.895,508.735 L329.635,503.698 z M335.611,512.933 L334.771,513.476 L338.031,518.514 L338.871,517.97 L335.611,512.933 z M341.587,522.168 L340.747,522.711 L344.007,527.749 L344.846,527.206 L341.587,522.168 z M347.562,531.404 L346.723,531.947 L349.983,536.984 L350.822,536.441 L347.562,531.404 z M353.538,540.639 L352.699,541.182 L355.958,546.219 L356.798,545.676 L353.538,540.639 z M359.514,549.874 L358.674,550.417 L361.934,555.455 L362.774,554.911 L359.514,549.874 z M365.49,559.109 L364.65,559.653 L367.91,564.69 L368.749,564.147 L365.49,559.109 z M371.466,568.345 L370.626,568.888 L373.885,573.925 L374.725,573.382 L371.466,568.345 z M377.441,577.58 L376.602,578.123 L379.861,583.161 L380.701,582.617 L377.441,577.58 z M383.417,586.815 L382.578,587.358 L385.837,592.396 L386.677,591.853 L383.417,586.815 z M389.393,596.05 L388.553,596.594 L391.813,601.631 L392.652,601.088 L389.393,596.05 z M395.369,605.286 L394.529,605.829 L397.789,610.866 L398.628,610.323 L395.369,605.286 z M401.344,614.521 L400.505,615.064 L403.764,620.102 L404.604,619.558 L401.344,614.521 z M407.32,623.756 L406.481,624.299 L408.08,626.772 L408.92,626.228 L407.32,623.756 z"/>
    </clipPath>
    <filter id="Shadow_2">
      <feGaussianBlur in="SourceAlpha" stdDeviation="2.5"/>
      <feOffset dx="0" dy="2" result="offsetblur"/>
      <feFlood flood-color="#000000"/>
      <feComposite in2="offsetblur" operator="in"/>
    </filter>
    <clipPath id="Clip_3">
      <path d="M6.08,6.228 L414.92,6.228 L414.92,634.772 L6.08,634.772 z M408.08,14.228 L404.821,19.266 L405.66,19.809 L408.92,14.772 L408.08,14.228 z M402.104,23.464 L398.845,28.501 L399.685,29.044 L402.944,24.007 L402.104,23.464 z M396.129,32.699 L392.869,37.736 L393.709,38.279 L396.968,33.242 L396.129,32.699 z M390.153,41.934 L386.893,46.972 L387.733,47.515 L390.992,42.477 L390.153,41.934 z M384.177,51.169 L380.918,56.207 L381.757,56.75 L385.017,51.713 L384.177,51.169 z M378.201,60.405 L374.942,65.442 L375.781,65.985 L379.041,60.948 L378.201,60.405 z M372.226,69.64 L368.966,74.677 L369.806,75.221 L373.065,70.183 L372.226,69.64 z M366.25,78.875 L362.99,83.913 L363.83,84.456 L367.089,79.419 L366.25,78.875 z M360.274,88.11 L357.014,93.148 L357.854,93.691 L361.114,88.654 L360.274,88.11 z M354.298,97.346 L351.039,102.383 L351.878,102.926 L355.138,97.889 L354.298,97.346 z M348.323,106.581 L345.063,111.618 L345.903,112.162 L349.162,107.124 L348.323,106.581 z M342.347,115.816 L339.087,120.854 L339.927,121.397 L343.186,116.36 L342.347,115.816 z M336.371,125.052 L333.112,130.089 L333.951,130.632 L337.211,125.595 L336.371,125.052 z M330.395,134.287 L327.136,139.324 L327.975,139.867 L331.235,134.83 L330.395,134.287 z M324.419,143.522 L321.16,148.559 L322,149.103 L325.259,144.065 L324.419,143.522 z M318.444,152.757 L315.184,157.795 L316.024,158.338 L319.283,153.301 L318.444,152.757 z M312.468,161.993 L309.208,167.03 L310.048,167.573 L313.307,162.536 L312.468,161.993 z M306.492,171.228 L303.233,176.265 L304.072,176.809 L307.332,171.771 L306.492,171.228 z M300.516,180.463 L297.257,185.501 L298.096,186.044 L301.356,181.007 L300.516,180.463 z M294.541,189.699 L291.281,194.736 L292.121,195.279 L295.38,190.242 L294.541,189.699 z M288.565,198.934 L285.305,203.971 L286.145,204.514 L289.405,199.477 L288.565,198.934 z M282.589,208.169 L279.33,213.206 L280.169,213.75 L283.429,208.712 L282.589,208.169 z M276.613,217.404 L273.354,222.442 L274.193,222.985 L277.453,217.948 L276.613,217.404 z M270.638,226.64 L267.378,231.677 L268.218,232.22 L271.477,227.183 L270.638,226.64 z M264.662,235.875 L261.402,240.912 L262.242,241.456 L265.501,236.418 L264.662,235.875 z M258.686,245.11 L255.427,250.148 L256.266,250.691 L259.526,245.653 L258.686,245.11 z M252.71,254.345 L249.451,259.383 L250.29,259.926 L253.55,254.889 L252.71,254.345 z M246.734,263.581 L243.475,268.618 L244.315,269.161 L247.574,264.124 L246.734,263.581 z M240.759,272.816 L237.499,277.853 L238.339,278.397 L241.598,273.359 L240.759,272.816 z M234.783,282.051 L231.523,287.089 L232.363,287.632 L235.623,282.595 L234.783,282.051 z M228.807,291.286 L225.548,296.324 L226.387,296.867 L229.647,291.83 L228.807,291.286 z M222.831,300.522 L219.572,305.559 L220.411,306.102 L223.671,301.065 L222.831,300.522 z M216.856,309.757 L213.596,314.794 L214.436,315.338 L217.695,310.3 L216.856,309.757 z M210.88,318.992 L207.62,324.03 L208.46,324.573 L211.719,319.535 L210.88,318.992 z M204.904,328.228 L201.645,333.265 L202.484,333.808 L205.744,328.771 L204.904,328.228 z M198.928,337.463 L195.669,342.5 L196.508,343.043 L199.768,338.006 L198.928,337.463 z M192.953,346.698 L189.693,351.736 L190.533,352.279 L193.792,347.241 L192.953,346.698 z M186.977,355.933 L183.717,360.971 L184.557,361.514 L187.816,356.477 L186.977,355.933 z M181.001,365.169 L177.742,370.206 L178.581,370.749 L181.841,365.712 L181.001,365.169 z M175.025,374.404 L171.766,379.441 L172.605,379.985 L175.865,374.947 L175.025,374.404 z M169.05,383.639 L165.79,388.677 L166.63,389.22 L169.889,384.182 L169.05,383.639 z M163.074,392.875 L159.814,397.912 L160.654,398.455 L163.913,393.418 L163.074,392.875 z M157.098,402.11 L153.839,407.147 L154.678,407.69 L157.938,402.653 L157.098,402.11 z M151.122,411.345 L147.863,416.382 L148.702,416.926 L151.962,411.888 L151.122,411.345 z M145.146,420.58 L141.887,425.618 L142.727,426.161 L145.986,421.124 L145.146,420.58 z M139.171,429.816 L135.911,434.853 L136.751,435.396 L140.01,430.359 L139.171,429.816 z M133.195,439.051 L129.936,444.088 L130.775,444.632 L134.035,439.594 L133.195,439.051 z M127.219,448.286 L123.96,453.323 L124.799,453.867 L128.059,448.829 L127.219,448.286 z M121.243,457.521 L117.984,462.559 L118.824,463.102 L122.083,458.065 L121.243,457.521 z M115.268,466.757 L112.008,471.794 L112.848,472.337 L116.107,467.3 L115.268,466.757 z M109.292,475.992 L106.033,481.029 L106.872,481.573 L110.132,476.535 L109.292,475.992 z M103.316,485.227 L100.057,490.265 L100.896,490.808 L104.156,485.77 L103.316,485.227 z M97.34,494.462 L94.081,499.5 L94.921,500.043 L98.18,495.006 L97.34,494.462 z M91.365,503.698 L88.105,508.735 L88.945,509.278 L92.204,504.241 L91.365,503.698 z M85.389,512.933 L82.129,517.97 L82.969,518.514 L86.229,513.476 L85.389,512.933 z M79.413,522.168 L76.154,527.206 L76.993,527.749 L80.253,522.711 L79.413,522.168 z M73.437,531.404 L70.178,536.441 L71.017,536.984 L74.277,531.947 L73.437,531.404 z M67.462,540.639 L64.202,545.676 L65.042,546.219 L68.301,541.182 L67.462,540.639 z M61.486,549.874 L58.226,554.911 L59.066,555.455 L62.325,550.417 L61.486,549.874 z M55.51,559.109 L52.251,564.147 L53.09,564.69 L56.35,559.653 L55.51,559.109 z M49.534,568.345 L46.275,573.382 L47.114,573.925 L50.374,568.888 L49.534,568.345 z M43.559,577.58 L40.299,582.617 L41.139,583.161 L44.398,578.123 L43.559,577.58 z M37.583,586.815 L34.323,591.853 L35.163,592.396 L38.422,587.358 L37.583,586.815 z M31.607,596.05 L28.347,601.088 L29.187,601.631 L32.447,596.594 L31.607,596.05 z M25.631,605.286 L22.372,610.323 L23.211,610.866 L26.471,605.829 L25.631,605.286 z M19.656,614.521 L16.396,619.558 L17.236,620.102 L20.495,615.064 L19.656,614.521 z M13.68,623.756 L12.08,626.228 L12.92,626.772 L14.519,624.299 L13.68,623.756 z"/>
    </clipPath>
    <filter id="Shadow_4">
      <feGaussianBlur in="SourceAlpha" stdDeviation="2.5"/>
      <feOffset dx="0" dy="2" result="offsetblur"/>
      <feFlood flood-color="#000000"/>
      <feComposite in2="offsetblur" operator="in"/>
    </filter>
    <clipPath id="Clip_5">
      <path d="M48.069,299.446 L107.848,299.446 L107.848,369.921 L48.069,369.921 z M94.939,311.849 L95.328,312 C98.496,314.304 83.304,337.632 78.768,334.536 C77.544,333.672 79.344,328.92 83.736,322.584 C86.36,318.924 90.304,313.069 94.939,311.849 z M86.919,307.446 L86.256,307.536 L65.664,337.128 C63.648,339.792 61.992,342.168 61.056,343.68 C58.68,347.424 53.928,356.568 54.072,358.44 C54.144,359.952 55.728,364.056 58.68,360.528 C63.576,354.768 70.416,343.608 75.24,335.688 C75.96,337.056 77.184,338.208 79.056,338.712 C85.32,340.584 94.392,331.296 96.912,327.336 C105.192,314.52 101.304,311.784 97.848,309.48 C95.688,308.04 92.88,307.248 89.136,308.904 C88.04,307.782 88.734,308.331 86.919,307.446 z"/>
    </clipPath>
    <filter id="Shadow_6">
      <feGaussianBlur in="SourceAlpha" stdDeviation="2.5"/>
      <feOffset dx="0" dy="2" result="offsetblur"/>
      <feFlood flood-color="#000000"/>
      <feComposite in2="offsetblur" operator="in"/>
    </filter>
    <clipPath id="Clip_7">
      <path d="M95.232,277.518 L138.913,277.518 L138.913,347.163 L95.232,347.163 z M129.002,285.518 C127.93,285.694 128.322,285.479 127.728,285.936 C122.904,290.832 105.552,318.408 102.312,324.672 C100.8,327.696 101.016,331.368 102.096,334.176 C102.456,335.256 103.032,336.336 104.04,337.344 C108,341.376 115.488,338.784 122.184,328.776 C124.848,324.816 121.464,321.36 120.6,322.656 C116.856,327.984 108.504,337.704 105.912,334.752 C103.68,332.16 109.728,323.592 111.456,321 C111.528,320.856 112.392,319.776 113.472,318.408 C122.544,308.04 131.112,295.8 132.12,293.784 C133.056,291.984 133.344,289.68 131.976,287.736 C131.18,286.717 130.348,285.767 129.002,285.518 z"/>
    </clipPath>
    <filter id="Shadow_8">
      <feGaussianBlur in="SourceAlpha" stdDeviation="2.5"/>
      <feOffset dx="0" dy="2" result="offsetblur"/>
      <feFlood flood-color="#000000"/>
      <feComposite in2="offsetblur" operator="in"/>
    </filter>
    <clipPath id="Clip_9">
      <path d="M111.867,300.133 L160.076,300.133 L160.076,347.137 L111.867,347.137 z M138.25,313.53 L138.528,313.656 C139.608,314.664 136.656,320.064 134.712,323.088 L133.416,324.96 C126.216,333.96 122.616,335.688 121.968,334.824 C121.176,333.744 124.272,328.2 127.296,323.808 C129.826,320.308 133.71,314.535 138.25,313.53 z M135.899,308.133 C133.874,308.566 134.735,308.264 133.272,308.904 C130.176,310.488 126.072,314.088 123.192,318.48 C117.72,326.76 115.848,332.016 120.528,336.768 C125.28,341.52 129.96,338.352 134.064,333.6 C134.136,335.4 134.712,336.984 136.296,338.136 C139.68,340.584 146.376,338.928 153.072,328.848 C155.736,324.888 152.352,321.36 151.488,322.728 C147.744,328.056 140.184,336.624 138.312,335.328 C136.224,333.888 139.176,328.488 141.696,324.6 C143.856,321.144 146.16,318.264 146.808,317.4 C147.456,316.464 145.44,314.304 143.496,313.584 C143.424,311.64 141.264,310.776 139.896,309.768 C138.678,308.887 137.475,308.108 135.899,308.133 z"/>
    </clipPath>
    <filter id="Shadow_10">
      <feGaussianBlur in="SourceAlpha" stdDeviation="2.5"/>
      <feOffset dx="0" dy="2" result="offsetblur"/>
      <feFlood flood-color="#000000"/>
      <feComposite in2="offsetblur" operator="in"/>
    </filter>
    <clipPath id="Clip_11">
      <path d="M143.4,298.438 L186.566,298.438 L186.566,347.017 L143.4,347.017 z M166.185,306.438 L165.312,306.6 C158.832,308.328 149.4,321.72 149.4,329.496 C149.4,333.744 151.344,335.544 153.648,336.984 C162.504,342.744 174.888,335.184 179.568,327.768 C182.304,323.448 178.632,320.568 177.84,321.648 C170.28,332.88 159.984,337.2 156.312,334.68 C153.936,333.024 155.232,327.048 159.912,320.568 C164.376,314.52 167.832,312 168.408,312.576 C168.696,312.864 168.264,314.088 166.104,317.904 C164.16,321.288 167.544,325.464 168.552,324.384 C170.784,322.152 171.792,320.352 172.8,318.048 C174.528,313.584 173.664,312 168.696,307.248 C167.482,306.418 168.268,306.813 166.185,306.438 z"/>
    </clipPath>
    <filter id="Shadow_12">
      <feGaussianBlur in="SourceAlpha" stdDeviation="2.5"/>
      <feOffset dx="0" dy="2" result="offsetblur"/>
      <feFlood flood-color="#000000"/>
      <feComposite in2="offsetblur" operator="in"/>
    </filter>
    <clipPath id="Clip_13">
      <path d="M169.032,298.404 L212.202,298.404 L212.202,347.048 L169.032,347.048 z M194.313,311.874 L194.472,311.928 C195.048,312.36 193.536,316.32 190.008,320.496 C187.344,323.664 184.32,326.256 183.24,325.68 C182.592,325.32 183.744,323.088 185.616,320.496 C187.949,317.355 190.532,313.36 194.313,311.874 z M191.627,306.429 L190.656,306.6 C184.104,308.4 175.032,321.576 175.032,329.208 C175.032,333.456 176.616,335.184 179.424,336.984 C188.208,342.816 200.448,335.184 205.128,327.84 C208.008,323.376 204.264,320.568 203.544,321.648 C195.912,332.88 185.688,337.128 181.944,334.608 C180.576,333.672 180.504,330.432 181.584,327.264 C182.808,328.416 184.896,330.072 186.768,329.712 C191.88,328.632 196.56,324.24 199.08,317.904 C200.88,313.224 200.664,311.28 195.12,307.32 C194.015,306.607 192.982,306.311 191.627,306.429 z"/>
    </clipPath>
    <filter id="Shadow_14">
      <feGaussianBlur in="SourceAlpha" stdDeviation="2.5"/>
      <feOffset dx="0" dy="2" result="offsetblur"/>
      <feFlood flood-color="#000000"/>
      <feComposite in2="offsetblur" operator="in"/>
    </filter>
    <clipPath id="Clip_15">
      <path d="M189.513,277.374 L243.081,277.374 L243.081,347.058 L189.513,347.058 z M228.654,285.374 C227.578,285.55 227.971,285.335 227.376,285.792 C222.552,291.048 208.008,313.584 205.56,317.904 C201.6,324.96 196.56,333.096 195.624,334.896 C194.904,336.264 197.856,338.424 199.872,338.928 C200.736,339.144 201.24,338.856 201.816,338.352 C204.84,335.184 211.752,329.28 217.728,323.376 C217.512,323.736 217.296,324.096 217.152,324.456 C215.64,327.264 214.128,331.656 214.92,334.32 C217.008,341.232 227.16,341.664 236.16,328.272 C238.608,324.6 235.512,320.712 234.504,322.224 C228.024,331.656 220.536,336.336 219.816,335.616 C219.096,334.968 220.032,333.024 221.04,330.864 C223.488,325.608 229.968,316.968 233.352,312 C235.08,309.48 230.616,307.464 229.104,307.464 C228.816,307.536 228.312,307.464 227.88,307.968 C222.696,313.584 213.984,322.368 206.424,329.496 C208.152,326.4 210.312,322.728 212.616,318.84 C221.904,308.4 230.76,295.728 231.84,293.64 C232.704,291.84 233.064,289.536 231.696,287.592 C230.872,286.576 230.013,285.622 228.654,285.374 z"/>
    </clipPath>
    <filter id="Shadow_16">
      <feGaussianBlur in="SourceAlpha" stdDeviation="2.5"/>
      <feOffset dx="0" dy="2" result="offsetblur"/>
      <feFlood flood-color="#000000"/>
      <feComposite in2="offsetblur" operator="in"/>
    </filter>
    <clipPath id="Clip_17">
      <path d="M225.96,299.909 L273.408,299.909 L273.408,347.544 L225.96,347.544 z M247.968,315.024 C247.464,317.976 248.4,321.864 249.408,324.744 C249.048,325.32 248.76,325.824 248.472,326.256 C246.096,329.856 240.624,336.552 238.68,335.04 C236.952,333.744 238.896,326.976 241.848,322.296 C244.008,318.768 246.168,316.464 247.968,315.024 z M248.245,307.909 C245.593,308.352 244.905,308.569 242.784,310.416 C239.544,313.296 232.776,320.856 231.984,330.36 C231.624,335.184 235.368,336.84 236.592,337.776 C237.816,338.784 241.776,341.304 247.32,337.56 C249.12,336.408 251.064,334.176 252.72,331.872 C257.256,337.344 263.808,332.088 266.4,328.2 C269.208,323.808 265.32,321 264.744,322.008 C261,327.984 257.976,329.856 256.464,329.28 C255.96,329.064 255.6,328.344 255.312,327.552 C255.816,326.616 256.176,325.752 256.464,325.032 C258.984,317.4 258.912,313.224 251.208,308.832 C249.612,308.052 250.576,308.428 248.245,307.909 z"/>
    </clipPath>
    <filter id="Shadow_18">
      <feGaussianBlur in="SourceAlpha" stdDeviation="2.5"/>
      <feOffset dx="0" dy="2" result="offsetblur"/>
      <feFlood flood-color="#000000"/>
      <feComposite in2="offsetblur" operator="in"/>
    </filter>
    <clipPath id="Clip_19">
      <path d="M256.152,277.518 L299.833,277.518 L299.833,347.163 L256.152,347.163 z M289.922,285.518 C288.85,285.694 289.242,285.479 288.648,285.936 C283.824,290.832 266.472,318.408 263.232,324.672 C261.72,327.696 261.936,331.368 263.016,334.176 C263.376,335.256 263.952,336.336 264.96,337.344 C268.92,341.376 276.408,338.784 283.104,328.776 C285.768,324.816 282.384,321.36 281.52,322.656 C277.776,327.984 269.424,337.704 266.832,334.752 C264.6,332.16 270.648,323.592 272.376,321 C272.448,320.856 273.312,319.776 274.392,318.408 C283.464,308.04 292.032,295.8 293.04,293.784 C293.976,291.984 294.264,289.68 292.896,287.736 C292.1,286.717 291.268,285.767 289.922,285.518 z"/>
    </clipPath>
    <filter id="Shadow_20">
      <feGaussianBlur in="SourceAlpha" stdDeviation="2.5"/>
      <feOffset dx="0" dy="2" result="offsetblur"/>
      <feFlood flood-color="#000000"/>
      <feComposite in2="offsetblur" operator="in"/>
    </filter>
    <clipPath id="Clip_21">
      <path d="M272.787,277.374 L332.477,277.374 L332.477,347.057 L272.787,347.057 z M299.099,313.531 L299.376,313.656 C299.952,314.16 300.24,317.184 294.48,324.672 C287.424,334.032 283.536,335.616 282.888,334.752 C282.096,333.744 285.192,328.2 288.144,323.808 C290.711,320.329 294.588,314.59 299.099,313.531 z M322.538,285.374 C321.466,285.55 321.858,285.335 321.264,285.792 C317.808,289.536 306.36,306.672 303.192,311.496 C302.472,310.848 301.536,310.344 300.744,309.768 C298.44,307.968 296.712,307.68 294.192,308.976 C291.024,310.56 286.992,314.088 284.112,318.48 C278.64,326.76 276.768,332.016 281.448,336.696 C286.344,341.592 291.168,338.064 295.344,333.096 C295.56,334.536 296.28,335.976 297.504,337.272 C301.536,341.232 309.024,338.712 315.72,328.632 C318.384,324.672 315,321.216 314.136,322.512 C310.392,327.84 302.04,337.632 299.448,334.68 C297.144,332.016 303.192,323.448 304.92,320.928 C305.712,319.776 306.576,318.768 306.576,318.768 C315.792,308.328 324.648,295.728 325.656,293.64 C326.592,291.84 326.952,289.536 325.512,287.592 C324.716,286.573 323.884,285.623 322.538,285.374 z"/>
    </clipPath>
    <filter id="Shadow_22">
      <feGaussianBlur in="SourceAlpha" stdDeviation="2.5"/>
      <feOffset dx="0" dy="2" result="offsetblur"/>
      <feFlood flood-color="#000000"/>
      <feComposite in2="offsetblur" operator="in"/>
    </filter>
    <clipPath id="Clip_23">
      <path d="M305.688,298.404 L348.858,298.404 L348.858,347.048 L305.688,347.048 z M330.969,311.874 L331.128,311.928 C331.704,312.36 330.192,316.32 326.664,320.496 C324,323.664 320.976,326.256 319.896,325.68 C319.248,325.32 320.4,323.088 322.272,320.496 C324.605,317.355 327.188,313.36 330.969,311.874 z M328.283,306.429 L327.312,306.6 C320.76,308.4 311.688,321.576 311.688,329.208 C311.688,333.456 313.272,335.184 316.08,336.984 C324.864,342.816 337.104,335.184 341.784,327.84 C344.664,323.376 340.92,320.568 340.2,321.648 C332.568,332.88 322.344,337.128 318.6,334.608 C317.232,333.672 317.16,330.432 318.24,327.264 C319.464,328.416 321.552,330.072 323.424,329.712 C328.536,328.632 333.216,324.24 335.736,317.904 C337.536,313.224 337.32,311.28 331.776,307.32 C330.671,306.607 329.638,306.311 328.283,306.429 z"/>
    </clipPath>
    <filter id="Shadow_24">
      <feGaussianBlur in="SourceAlpha" stdDeviation="2.5"/>
      <feOffset dx="0" dy="2" result="offsetblur"/>
      <feFlood flood-color="#000000"/>
      <feComposite in2="offsetblur" operator="in"/>
    </filter>
    <clipPath id="Clip_25">
      <path d="M329.834,289.883 L376.451,289.883 L376.451,347.061 L329.834,347.061 z M352.771,297.883 C348.269,298.643 345.771,303.516 344.52,307.464 C344.088,309.12 344.592,310.272 345.528,311.28 C344.232,314.448 342.36,319.416 336.24,326.904 C334.296,329.28 339.912,330.36 340.848,329.064 C343.08,326.112 348.192,318.696 350.568,314.304 C352.008,315.6 353.52,316.104 354.96,316.248 C350.208,323.448 344.088,333.384 349.848,337.848 C353.664,340.728 362.808,338.784 369.504,328.704 C372.096,324.744 368.64,321.288 367.776,322.584 C364.392,328.128 354.312,338.568 352.44,335.616 C350.568,332.664 362.592,318.408 364.32,315.888 C364.752,315.168 364.608,311.928 362.016,309.408 C361.656,308.976 361.224,308.688 360.72,308.688 C360.504,308.688 360.288,308.688 360.072,308.904 C357.48,310.776 354.816,312.504 352.944,311.928 C354.456,309.264 354.96,307.968 355.248,307.104 C356.976,302.208 356.112,298.824 353.232,297.96 L352.771,297.883 z"/>
    </clipPath>
    <filter id="Shadow_26">
      <feGaussianBlur in="SourceAlpha" stdDeviation="2.5"/>
      <feOffset dx="0" dy="2" result="offsetblur"/>
      <feFlood flood-color="#000000"/>
      <feComposite in2="offsetblur" operator="in"/>
    </filter>
  </defs>
  <g id="Layer_1">
    <path d="M0,0 L420,0 L420,640 L0,640 L0,0 z" fill="#FF7979"/>
    <g>
      <path d="M407.32,623.756 L408.92,626.228 L408.08,626.772 L406.481,624.299 L407.32,623.756 z M401.344,614.521 L404.604,619.558 L403.764,620.102 L400.505,615.064 L401.344,614.521 z M395.369,605.286 L398.628,610.323 L397.789,610.866 L394.529,605.829 L395.369,605.286 z M389.393,596.05 L392.652,601.088 L391.813,601.631 L388.553,596.594 L389.393,596.05 z M383.417,586.815 L386.677,591.853 L385.837,592.396 L382.578,587.358 L383.417,586.815 z M377.441,577.58 L380.701,582.617 L379.861,583.161 L376.602,578.123 L377.441,577.58 z M371.466,568.345 L374.725,573.382 L373.885,573.925 L370.626,568.888 L371.466,568.345 z M365.49,559.109 L368.749,564.147 L367.91,564.69 L364.65,559.653 L365.49,559.109 z M359.514,549.874 L362.774,554.911 L361.934,555.455 L358.674,550.417 L359.514,549.874 z M353.538,540.639 L356.798,545.676 L355.958,546.219 L352.699,541.182 L353.538,540.639 z M347.562,531.404 L350.822,536.441 L349.983,536.984 L346.723,531.947 L347.562,531.404 z M341.587,522.168 L344.846,527.206 L344.007,527.749 L340.747,522.711 L341.587,522.168 z M335.611,512.933 L338.871,517.97 L338.031,518.514 L334.771,513.476 L335.611,512.933 z M329.635,503.698 L332.895,508.735 L332.055,509.278 L328.796,504.241 L329.635,503.698 z M323.659,494.462 L326.919,499.5 L326.079,500.043 L322.82,495.006 L323.659,494.462 z M317.684,485.227 L320.943,490.265 L320.104,490.808 L316.844,485.77 L317.684,485.227 z M311.708,475.992 L314.967,481.029 L314.128,481.573 L310.868,476.535 L311.708,475.992 z M305.732,466.757 L308.992,471.794 L308.152,472.337 L304.893,467.3 L305.732,466.757 z M299.756,457.521 L303.016,462.559 L302.176,463.102 L298.917,458.065 L299.756,457.521 z M293.781,448.286 L297.04,453.323 L296.201,453.867 L292.941,448.829 L293.781,448.286 z M287.805,439.051 L291.064,444.088 L290.225,444.632 L286.965,439.594 L287.805,439.051 z M281.829,429.816 L285.089,434.853 L284.249,435.396 L280.99,430.359 L281.829,429.816 z M275.853,420.58 L279.113,425.618 L278.273,426.161 L275.014,421.124 L275.853,420.58 z M269.878,411.345 L273.137,416.382 L272.297,416.926 L269.038,411.888 L269.878,411.345 z M263.902,402.11 L267.161,407.147 L266.322,407.69 L263.062,402.653 L263.902,402.11 z M257.926,392.875 L261.186,397.912 L260.346,398.455 L257.086,393.418 L257.926,392.875 z M251.95,383.639 L255.21,388.677 L254.37,389.22 L251.111,384.182 L251.95,383.639 z M245.975,374.404 L249.234,379.441 L248.395,379.985 L245.135,374.947 L245.975,374.404 z M239.999,365.169 L243.258,370.206 L242.419,370.749 L239.159,365.712 L239.999,365.169 z M234.023,355.933 L237.283,360.971 L236.443,361.514 L233.183,356.477 L234.023,355.933 z M228.047,346.698 L231.307,351.736 L230.467,352.279 L227.208,347.241 L228.047,346.698 z M222.072,337.463 L225.331,342.5 L224.491,343.043 L221.232,338.006 L222.072,337.463 z M216.096,328.228 L219.355,333.265 L218.516,333.808 L215.256,328.771 L216.096,328.228 z M210.12,318.992 L213.38,324.03 L212.54,324.573 L209.28,319.535 L210.12,318.992 z M204.144,309.757 L207.404,314.794 L206.564,315.338 L203.305,310.3 L204.144,309.757 z M198.168,300.522 L201.428,305.559 L200.588,306.102 L197.329,301.065 L198.168,300.522 z M192.193,291.286 L195.452,296.324 L194.613,296.867 L191.353,291.83 L192.193,291.286 z M186.217,282.051 L189.476,287.089 L188.637,287.632 L185.377,282.595 L186.217,282.051 z M180.241,272.816 L183.501,277.853 L182.661,278.397 L179.402,273.359 L180.241,272.816 z M174.265,263.581 L177.525,268.618 L176.685,269.161 L173.426,264.124 L174.265,263.581 z M168.29,254.345 L171.549,259.383 L170.71,259.926 L167.45,254.889 L168.29,254.345 z M162.314,245.11 L165.573,250.148 L164.734,250.691 L161.474,245.653 L162.314,245.11 z M156.338,235.875 L159.598,240.912 L158.758,241.456 L155.499,236.418 L156.338,235.875 z M150.362,226.64 L153.622,231.677 L152.782,232.22 L149.523,227.183 L150.362,226.64 z M144.387,217.404 L147.646,222.442 L146.807,222.985 L143.547,217.948 L144.387,217.404 z M138.411,208.169 L141.67,213.206 L140.831,213.75 L137.571,208.712 L138.411,208.169 z M132.435,198.934 L135.695,203.971 L134.855,204.514 L131.595,199.477 L132.435,198.934 z M126.459,189.699 L129.719,194.736 L128.879,195.279 L125.62,190.242 L126.459,189.699 z M120.483,180.463 L123.743,185.501 L122.903,186.044 L119.644,181.007 L120.483,180.463 z M114.508,171.228 L117.767,176.265 L116.928,176.809 L113.668,171.771 L114.508,171.228 z M108.532,161.993 L111.791,167.03 L110.952,167.573 L107.692,162.536 L108.532,161.993 z M102.556,152.757 L105.816,157.795 L104.976,158.338 L101.717,153.301 L102.556,152.757 z M96.58,143.522 L99.84,148.559 L99,149.103 L95.741,144.065 L96.58,143.522 z M90.605,134.287 L93.864,139.324 L93.025,139.867 L89.765,134.83 L90.605,134.287 z M84.629,125.052 L87.888,130.089 L87.049,130.632 L83.789,125.595 L84.629,125.052 z M78.653,115.816 L81.913,120.854 L81.073,121.397 L77.814,116.36 L78.653,115.816 z M72.677,106.581 L75.937,111.618 L75.097,112.162 L71.838,107.124 L72.677,106.581 z M66.702,97.346 L69.961,102.383 L69.121,102.926 L65.862,97.889 L66.702,97.346 z M60.726,88.11 L63.985,93.148 L63.146,93.691 L59.886,88.654 L60.726,88.11 z M54.75,78.875 L58.01,83.913 L57.17,84.456 L53.91,79.419 L54.75,78.875 z M48.774,69.64 L52.034,74.677 L51.194,75.221 L47.935,70.183 L48.774,69.64 z M42.799,60.405 L46.058,65.442 L45.218,65.985 L41.959,60.948 L42.799,60.405 z M36.823,51.169 L40.082,56.207 L39.243,56.75 L35.983,51.713 L36.823,51.169 z M30.847,41.934 L34.106,46.972 L33.267,47.515 L30.007,42.477 L30.847,41.934 z M24.871,32.699 L28.131,37.736 L27.291,38.279 L24.032,33.242 L24.871,32.699 z M18.896,23.464 L22.155,28.501 L21.315,29.044 L18.056,24.007 L18.896,23.464 z M12.92,14.228 L16.179,19.266 L15.34,19.809 L12.08,14.772 L12.92,14.228 z" clip-path="url(#Clip_1)" filter="url(#Shadow_2)" fill="rgba(0,0,0,0.75)"/>
      <path d="M12.5,14.5 L408.5,626.5" fill-opacity="0" stroke="#FFFFFF" stroke-width="1" stroke-dasharray="6,5"/>
    </g>
    <g>
      <path d="M13.68,623.756 L14.519,624.299 L12.92,626.772 L12.08,626.228 L13.68,623.756 z M19.656,614.521 L20.495,615.064 L17.236,620.102 L16.396,619.558 L19.656,614.521 z M25.631,605.286 L26.471,605.829 L23.211,610.866 L22.372,610.323 L25.631,605.286 z M31.607,596.05 L32.447,596.594 L29.187,601.631 L28.347,601.088 L31.607,596.05 z M37.583,586.815 L38.422,587.358 L35.163,592.396 L34.323,591.853 L37.583,586.815 z M43.559,577.58 L44.398,578.123 L41.139,583.161 L40.299,582.617 L43.559,577.58 z M49.534,568.345 L50.374,568.888 L47.114,573.925 L46.275,573.382 L49.534,568.345 z M55.51,559.109 L56.35,559.653 L53.09,564.69 L52.251,564.147 L55.51,559.109 z M61.486,549.874 L62.325,550.417 L59.066,555.455 L58.226,554.911 L61.486,549.874 z M67.462,540.639 L68.301,541.182 L65.042,546.219 L64.202,545.676 L67.462,540.639 z M73.437,531.404 L74.277,531.947 L71.017,536.984 L70.178,536.441 L73.437,531.404 z M79.413,522.168 L80.253,522.711 L76.993,527.749 L76.154,527.206 L79.413,522.168 z M85.389,512.933 L86.229,513.476 L82.969,518.514 L82.129,517.97 L85.389,512.933 z M91.365,503.698 L92.204,504.241 L88.945,509.278 L88.105,508.735 L91.365,503.698 z M97.34,494.462 L98.18,495.006 L94.921,500.043 L94.081,499.5 L97.34,494.462 z M103.316,485.227 L104.156,485.77 L100.896,490.808 L100.057,490.265 L103.316,485.227 z M109.292,475.992 L110.132,476.535 L106.872,481.573 L106.033,481.029 L109.292,475.992 z M115.268,466.757 L116.107,467.3 L112.848,472.337 L112.008,471.794 L115.268,466.757 z M121.243,457.521 L122.083,458.065 L118.824,463.102 L117.984,462.559 L121.243,457.521 z M127.219,448.286 L128.059,448.829 L124.799,453.867 L123.96,453.323 L127.219,448.286 z M133.195,439.051 L134.035,439.594 L130.775,444.632 L129.936,444.088 L133.195,439.051 z M139.171,429.816 L140.01,430.359 L136.751,435.396 L135.911,434.853 L139.171,429.816 z M145.146,420.58 L145.986,421.124 L142.727,426.161 L141.887,425.618 L145.146,420.58 z M151.122,411.345 L151.962,411.888 L148.702,416.926 L147.863,416.382 L151.122,411.345 z M157.098,402.11 L157.938,402.653 L154.678,407.69 L153.839,407.147 L157.098,402.11 z M163.074,392.875 L163.913,393.418 L160.654,398.455 L159.814,397.912 L163.074,392.875 z M169.05,383.639 L169.889,384.182 L166.63,389.22 L165.79,388.677 L169.05,383.639 z M175.025,374.404 L175.865,374.947 L172.605,379.985 L171.766,379.441 L175.025,374.404 z M181.001,365.169 L181.841,365.712 L178.581,370.749 L177.742,370.206 L181.001,365.169 z M186.977,355.933 L187.816,356.477 L184.557,361.514 L183.717,360.971 L186.977,355.933 z M192.953,346.698 L193.792,347.241 L190.533,352.279 L189.693,351.736 L192.953,346.698 z M198.928,337.463 L199.768,338.006 L196.508,343.043 L195.669,342.5 L198.928,337.463 z M204.904,328.228 L205.744,328.771 L202.484,333.808 L201.645,333.265 L204.904,328.228 z M210.88,318.992 L211.719,319.535 L208.46,324.573 L207.62,324.03 L210.88,318.992 z M216.856,309.757 L217.695,310.3 L214.436,315.338 L213.596,314.794 L216.856,309.757 z M222.831,300.522 L223.671,301.065 L220.411,306.102 L219.572,305.559 L222.831,300.522 z M228.807,291.286 L229.647,291.83 L226.387,296.867 L225.548,296.324 L228.807,291.286 z M234.783,282.051 L235.623,282.595 L232.363,287.632 L231.523,287.089 L234.783,282.051 z M240.759,272.816 L241.598,273.359 L238.339,278.397 L237.499,277.853 L240.759,272.816 z M246.734,263.581 L247.574,264.124 L244.315,269.161 L243.475,268.618 L246.734,263.581 z M252.71,254.345 L253.55,254.889 L250.29,259.926 L249.451,259.383 L252.71,254.345 z M258.686,245.11 L259.526,245.653 L256.266,250.691 L255.427,250.148 L258.686,245.11 z M264.662,235.875 L265.501,236.418 L262.242,241.456 L261.402,240.912 L264.662,235.875 z M270.638,226.64 L271.477,227.183 L268.218,232.22 L267.378,231.677 L270.638,226.64 z M276.613,217.404 L277.453,217.948 L274.193,222.985 L273.354,222.442 L276.613,217.404 z M282.589,208.169 L283.429,208.712 L280.169,213.75 L279.33,213.206 L282.589,208.169 z M288.565,198.934 L289.405,199.477 L286.145,204.514 L285.305,203.971 L288.565,198.934 z M294.541,189.699 L295.38,190.242 L292.121,195.279 L291.281,194.736 L294.541,189.699 z M300.516,180.463 L301.356,181.007 L298.096,186.044 L297.257,185.501 L300.516,180.463 z M306.492,171.228 L307.332,171.771 L304.072,176.809 L303.233,176.265 L306.492,171.228 z M312.468,161.993 L313.307,162.536 L310.048,167.573 L309.208,167.03 L312.468,161.993 z M318.444,152.757 L319.283,153.301 L316.024,158.338 L315.184,157.795 L318.444,152.757 z M324.419,143.522 L325.259,144.065 L322,149.103 L321.16,148.559 L324.419,143.522 z M330.395,134.287 L331.235,134.83 L327.975,139.867 L327.136,139.324 L330.395,134.287 z M336.371,125.052 L337.211,125.595 L333.951,130.632 L333.112,130.089 L336.371,125.052 z M342.347,115.816 L343.186,116.36 L339.927,121.397 L339.087,120.854 L342.347,115.816 z M348.323,106.581 L349.162,107.124 L345.903,112.162 L345.063,111.618 L348.323,106.581 z M354.298,97.346 L355.138,97.889 L351.878,102.926 L351.039,102.383 L354.298,97.346 z M360.274,88.11 L361.114,88.654 L357.854,93.691 L357.014,93.148 L360.274,88.11 z M366.25,78.875 L367.089,79.419 L363.83,84.456 L362.99,83.913 L366.25,78.875 z M372.226,69.64 L373.065,70.183 L369.806,75.221 L368.966,74.677 L372.226,69.64 z M378.201,60.405 L379.041,60.948 L375.781,65.985 L374.942,65.442 L378.201,60.405 z M384.177,51.169 L385.017,51.713 L381.757,56.75 L380.918,56.207 L384.177,51.169 z M390.153,41.934 L390.992,42.477 L387.733,47.515 L386.893,46.972 L390.153,41.934 z M396.129,32.699 L396.968,33.242 L393.709,38.279 L392.869,37.736 L396.129,32.699 z M402.104,23.464 L402.944,24.007 L399.685,29.044 L398.845,28.501 L402.104,23.464 z M408.08,14.228 L408.92,14.772 L405.66,19.809 L404.821,19.266 L408.08,14.228 z" clip-path="url(#Clip_3)" filter="url(#Shadow_4)" fill="rgba(0,0,0,0.75)"/>
      <path d="M408.5,14.5 L12.5,626.5" fill-opacity="0" stroke="#FFFFFF" stroke-width="1" stroke-dasharray="6,5"/>
    </g>
    <g>
      <path d="M86.919,307.446 C88.734,308.331 88.04,307.782 89.136,308.904 C92.88,307.248 95.688,308.04 97.848,309.48 C101.304,311.784 105.192,314.52 96.912,327.336 C94.392,331.296 85.32,340.584 79.056,338.712 C77.184,338.208 75.96,337.056 75.24,335.688 C70.416,343.608 63.576,354.768 58.68,360.528 C55.728,364.056 54.144,359.952 54.072,358.44 C53.928,356.568 58.68,347.424 61.056,343.68 C61.992,342.168 63.648,339.792 65.664,337.128 L86.256,307.536 L86.919,307.446 z M94.939,311.849 C90.304,313.069 86.36,318.924 83.736,322.584 C79.344,328.92 77.544,333.672 78.768,334.536 C83.304,337.632 98.496,314.304 95.328,312 L94.939,311.849 z" clip-path="url(#Clip_5)" filter="url(#Shadow_6)" fill="rgba(0,0,0,0.75)"/>
      <path d="M97.848,309.48 C95.688,308.04 92.88,307.248 89.136,308.904 C88.272,307.824 87.048,307.176 86.256,307.536 L65.664,337.128 C63.648,339.792 61.992,342.168 61.056,343.68 C58.68,347.424 53.928,356.568 54.072,358.44 C54.144,359.952 55.728,364.056 58.68,360.528 C63.576,354.768 70.416,343.608 75.24,335.688 C75.96,337.056 77.184,338.208 79.056,338.712 C85.32,340.584 94.392,331.296 96.912,327.336 C105.192,314.52 101.304,311.784 97.848,309.48 z M95.328,312 C98.496,314.304 83.304,337.632 78.768,334.536 C77.544,333.672 79.344,328.92 83.736,322.584 C87.192,317.472 93.528,310.704 95.328,312 z" fill="#FFFFFF"/>
    </g>
    <g>
      <path d="M129.002,285.518 C130.348,285.767 131.18,286.717 131.976,287.736 C133.344,289.68 133.056,291.984 132.12,293.784 C131.112,295.8 122.544,308.04 113.472,318.408 C112.392,319.776 111.528,320.856 111.456,321 C109.728,323.592 103.68,332.16 105.912,334.752 C108.504,337.704 116.856,327.984 120.6,322.656 C121.464,321.36 124.848,324.816 122.184,328.776 C115.488,338.784 108,341.376 104.04,337.344 C103.032,336.336 102.456,335.256 102.096,334.176 C101.016,331.368 100.8,327.696 102.312,324.672 C105.552,318.408 122.904,290.832 127.728,285.936 C128.322,285.479 127.93,285.694 129.002,285.518 z" clip-path="url(#Clip_7)" filter="url(#Shadow_8)" fill="rgba(0,0,0,0.75)"/>
      <path d="M127.728,285.936 C122.904,290.832 105.552,318.408 102.312,324.672 C100.8,327.696 101.016,331.368 102.096,334.176 C102.456,335.256 103.032,336.336 104.04,337.344 C108,341.376 115.488,338.784 122.184,328.776 C124.848,324.816 121.464,321.36 120.6,322.656 C116.856,327.984 108.504,337.704 105.912,334.752 C103.68,332.16 109.728,323.592 111.456,321 C111.528,320.856 112.392,319.776 113.472,318.408 C122.544,308.04 131.112,295.8 132.12,293.784 C133.056,291.984 133.344,289.68 131.976,287.736 C130.392,285.432 128.52,285.072 127.728,285.936 z" fill="#FFFFFF"/>
    </g>
    <g>
      <path d="M135.899,308.133 C137.475,308.108 138.678,308.887 139.896,309.768 C141.264,310.776 143.424,311.64 143.496,313.584 C145.44,314.304 147.456,316.464 146.808,317.4 C146.16,318.264 143.856,321.144 141.696,324.6 C139.176,328.488 136.224,333.888 138.312,335.328 C140.184,336.624 147.744,328.056 151.488,322.728 C152.352,321.36 155.736,324.888 153.072,328.848 C146.376,338.928 139.68,340.584 136.296,338.136 C134.712,336.984 134.136,335.4 134.064,333.6 C129.96,338.352 125.28,341.52 120.528,336.768 C115.848,332.016 117.72,326.76 123.192,318.48 C126.072,314.088 130.176,310.488 133.272,308.904 C134.735,308.264 133.874,308.566 135.899,308.133 z M138.25,313.53 C133.71,314.535 129.826,320.308 127.296,323.808 C124.272,328.2 121.176,333.744 121.968,334.824 C122.616,335.688 126.216,333.96 133.416,324.96 L134.712,323.088 C136.656,320.064 139.608,314.664 138.528,313.656 L138.25,313.53 z" clip-path="url(#Clip_9)" filter="url(#Shadow_10)" fill="rgba(0,0,0,0.75)"/>
      <path d="M151.488,322.728 C147.744,328.056 140.184,336.624 138.312,335.328 C136.224,333.888 139.176,328.488 141.696,324.6 C143.856,321.144 146.16,318.264 146.808,317.4 C147.456,316.464 145.44,314.304 143.496,313.584 C143.424,311.64 141.264,310.776 139.896,309.768 C137.592,307.968 135.864,307.608 133.272,308.904 C130.176,310.488 126.072,314.088 123.192,318.48 C117.72,326.76 115.848,332.016 120.528,336.768 C125.28,341.52 129.96,338.352 134.064,333.6 C134.136,335.4 134.712,336.984 136.296,338.136 C139.68,340.584 146.376,338.928 153.072,328.848 C155.736,324.888 152.352,321.36 151.488,322.728 z M121.968,334.824 C121.176,333.744 124.272,328.2 127.296,323.808 C131.832,317.112 137.304,312.648 138.528,313.656 C139.608,314.664 136.656,320.064 134.712,323.088 L133.416,324.96 C126.216,333.96 122.616,335.688 121.968,334.824 z" fill="#FFFFFF"/>
    </g>
    <g>
      <path d="M166.185,306.438 C168.268,306.813 167.482,306.418 168.696,307.248 C173.664,312 174.528,313.584 172.8,318.048 C171.792,320.352 170.784,322.152 168.552,324.384 C167.544,325.464 164.16,321.288 166.104,317.904 C168.264,314.088 168.696,312.864 168.408,312.576 C167.832,312 164.376,314.52 159.912,320.568 C155.232,327.048 153.936,333.024 156.312,334.68 C159.984,337.2 170.28,332.88 177.84,321.648 C178.632,320.568 182.304,323.448 179.568,327.768 C174.888,335.184 162.504,342.744 153.648,336.984 C151.344,335.544 149.4,333.744 149.4,329.496 C149.4,321.72 158.832,308.328 165.312,306.6 L166.185,306.438 z" clip-path="url(#Clip_11)" filter="url(#Shadow_12)" fill="rgba(0,0,0,0.75)"/>
      <path d="M168.552,324.384 C170.784,322.152 171.792,320.352 172.8,318.048 C174.528,313.584 173.664,312 168.696,307.248 C167.904,306.456 166.392,306.24 165.312,306.6 C158.832,308.328 149.4,321.72 149.4,329.496 C149.4,333.744 151.344,335.544 153.648,336.984 C162.504,342.744 174.888,335.184 179.568,327.768 C182.304,323.448 178.632,320.568 177.84,321.648 C170.28,332.88 159.984,337.2 156.312,334.68 C153.936,333.024 155.232,327.048 159.912,320.568 C164.376,314.52 167.832,312 168.408,312.576 C168.696,312.864 168.264,314.088 166.104,317.904 C164.16,321.288 167.544,325.464 168.552,324.384 z" fill="#FFFFFF"/>
    </g>
    <g>
      <path d="M191.627,306.429 C192.982,306.311 194.015,306.607 195.12,307.32 C200.664,311.28 200.88,313.224 199.08,317.904 C196.56,324.24 191.88,328.632 186.768,329.712 C184.896,330.072 182.808,328.416 181.584,327.264 C180.504,330.432 180.576,333.672 181.944,334.608 C185.688,337.128 195.912,332.88 203.544,321.648 C204.264,320.568 208.008,323.376 205.128,327.84 C200.448,335.184 188.208,342.816 179.424,336.984 C176.616,335.184 175.032,333.456 175.032,329.208 C175.032,321.576 184.104,308.4 190.656,306.6 L191.627,306.429 z M194.313,311.874 C190.532,313.36 187.949,317.355 185.616,320.496 C183.744,323.088 182.592,325.32 183.24,325.68 C184.32,326.256 187.344,323.664 190.008,320.496 C193.536,316.32 195.048,312.36 194.472,311.928 L194.313,311.874 z" clip-path="url(#Clip_13)" filter="url(#Shadow_14)" fill="rgba(0,0,0,0.75)"/>
      <path d="M190.656,306.6 C184.104,308.4 175.032,321.576 175.032,329.208 C175.032,333.456 176.616,335.184 179.424,336.984 C188.208,342.816 200.448,335.184 205.128,327.84 C208.008,323.376 204.264,320.568 203.544,321.648 C195.912,332.88 185.688,337.128 181.944,334.608 C180.576,333.672 180.504,330.432 181.584,327.264 C182.808,328.416 184.896,330.072 186.768,329.712 C191.88,328.632 196.56,324.24 199.08,317.904 C200.88,313.224 200.664,311.28 195.12,307.32 C193.608,306.168 191.808,306.312 190.656,306.6 z M185.616,320.496 C189.936,314.376 193.824,311.424 194.472,311.928 C195.048,312.36 193.536,316.32 190.008,320.496 C187.344,323.664 184.32,326.256 183.24,325.68 C182.592,325.32 183.744,323.088 185.616,320.496 z" fill="#FFFFFF"/>
    </g>
    <g>
      <path d="M228.654,285.374 C230.013,285.622 230.872,286.576 231.696,287.592 C233.064,289.536 232.704,291.84 231.84,293.64 C230.76,295.728 221.904,308.4 212.616,318.84 C210.312,322.728 208.152,326.4 206.424,329.496 C213.984,322.368 222.696,313.584 227.88,307.968 C228.312,307.464 228.816,307.536 229.104,307.464 C230.616,307.464 235.08,309.48 233.352,312 C229.968,316.968 223.488,325.608 221.04,330.864 C220.032,333.024 219.096,334.968 219.816,335.616 C220.536,336.336 228.024,331.656 234.504,322.224 C235.512,320.712 238.608,324.6 236.16,328.272 C227.16,341.664 217.008,341.232 214.92,334.32 C214.128,331.656 215.64,327.264 217.152,324.456 C217.296,324.096 217.512,323.736 217.728,323.376 C211.752,329.28 204.84,335.184 201.816,338.352 C201.24,338.856 200.736,339.144 199.872,338.928 C197.856,338.424 194.904,336.264 195.624,334.896 C196.56,333.096 201.6,324.96 205.56,317.904 C208.008,313.584 222.552,291.048 227.376,285.792 C227.971,285.335 227.578,285.55 228.654,285.374 z" clip-path="url(#Clip_15)" filter="url(#Shadow_16)" fill="rgba(0,0,0,0.75)"/>
      <path d="M227.376,285.792 C222.552,291.048 208.008,313.584 205.56,317.904 C201.6,324.96 196.56,333.096 195.624,334.896 C194.904,336.264 197.856,338.424 199.872,338.928 C200.736,339.144 201.24,338.856 201.816,338.352 C204.84,335.184 211.752,329.28 217.728,323.376 C217.512,323.736 217.296,324.096 217.152,324.456 C215.64,327.264 214.128,331.656 214.92,334.32 C217.008,341.232 227.16,341.664 236.16,328.272 C238.608,324.6 235.512,320.712 234.504,322.224 C228.024,331.656 220.536,336.336 219.816,335.616 C219.096,334.968 220.032,333.024 221.04,330.864 C223.488,325.608 229.968,316.968 233.352,312 C235.08,309.48 230.616,307.464 229.104,307.464 C228.816,307.536 228.312,307.464 227.88,307.968 C222.696,313.584 213.984,322.368 206.424,329.496 C208.152,326.4 210.312,322.728 212.616,318.84 C221.904,308.4 230.76,295.728 231.84,293.64 C232.704,291.84 233.064,289.536 231.696,287.592 C230.04,285.288 228.168,284.928 227.376,285.792 z" fill="#FFFFFF"/>
    </g>
    <g>
      <path d="M248.245,307.909 C250.576,308.428 249.612,308.052 251.208,308.832 C258.912,313.224 258.984,317.4 256.464,325.032 C256.176,325.752 255.816,326.616 255.312,327.552 C255.6,328.344 255.96,329.064 256.464,329.28 C257.976,329.856 261,327.984 264.744,322.008 C265.32,321 269.208,323.808 266.4,328.2 C263.808,332.088 257.256,337.344 252.72,331.872 C251.064,334.176 249.12,336.408 247.32,337.56 C241.776,341.304 237.816,338.784 236.592,337.776 C235.368,336.84 231.624,335.184 231.984,330.36 C232.776,320.856 239.544,313.296 242.784,310.416 C244.905,308.569 245.593,308.352 248.245,307.909 z M247.968,315.024 C246.168,316.464 244.008,318.768 241.848,322.296 C238.896,326.976 236.952,333.744 238.68,335.04 C240.624,336.552 246.096,329.856 248.472,326.256 C248.76,325.824 249.048,325.32 249.408,324.744 C248.4,321.864 247.464,317.976 247.968,315.024 z" clip-path="url(#Clip_17)" filter="url(#Shadow_18)" fill="rgba(0,0,0,0.75)"/>
      <path d="M264.744,322.008 C261,327.984 257.976,329.856 256.464,329.28 C255.96,329.064 255.6,328.344 255.312,327.552 C255.816,326.616 256.176,325.752 256.464,325.032 C258.984,317.4 258.912,313.224 251.208,308.832 C248.544,307.32 246.096,307.536 242.784,310.416 C239.544,313.296 232.776,320.856 231.984,330.36 C231.624,335.184 235.368,336.84 236.592,337.776 C237.816,338.784 241.776,341.304 247.32,337.56 C249.12,336.408 251.064,334.176 252.72,331.872 C257.256,337.344 263.808,332.088 266.4,328.2 C269.208,323.808 265.32,321 264.744,322.008 z M238.68,335.04 C236.952,333.744 238.896,326.976 241.848,322.296 C244.008,318.768 246.168,316.464 247.968,315.024 C247.464,317.976 248.4,321.864 249.408,324.744 C249.048,325.32 248.76,325.824 248.472,326.256 C246.096,329.856 240.624,336.552 238.68,335.04 z" fill="#FFFFFF"/>
    </g>
    <g>
      <path d="M289.922,285.518 C291.268,285.767 292.1,286.717 292.896,287.736 C294.264,289.68 293.976,291.984 293.04,293.784 C292.032,295.8 283.464,308.04 274.392,318.408 C273.312,319.776 272.448,320.856 272.376,321 C270.648,323.592 264.6,332.16 266.832,334.752 C269.424,337.704 277.776,327.984 281.52,322.656 C282.384,321.36 285.768,324.816 283.104,328.776 C276.408,338.784 268.92,341.376 264.96,337.344 C263.952,336.336 263.376,335.256 263.016,334.176 C261.936,331.368 261.72,327.696 263.232,324.672 C266.472,318.408 283.824,290.832 288.648,285.936 C289.242,285.479 288.85,285.694 289.922,285.518 z" clip-path="url(#Clip_19)" filter="url(#Shadow_20)" fill="rgba(0,0,0,0.75)"/>
      <path d="M288.648,285.936 C283.824,290.832 266.472,318.408 263.232,324.672 C261.72,327.696 261.936,331.368 263.016,334.176 C263.376,335.256 263.952,336.336 264.96,337.344 C268.92,341.376 276.408,338.784 283.104,328.776 C285.768,324.816 282.384,321.36 281.52,322.656 C277.776,327.984 269.424,337.704 266.832,334.752 C264.6,332.16 270.648,323.592 272.376,321 C272.448,320.856 273.312,319.776 274.392,318.408 C283.464,308.04 292.032,295.8 293.04,293.784 C293.976,291.984 294.264,289.68 292.896,287.736 C291.312,285.432 289.44,285.072 288.648,285.936 z" fill="#FFFFFF"/>
    </g>
    <g>
      <path d="M322.538,285.374 C323.884,285.623 324.716,286.573 325.512,287.592 C326.952,289.536 326.592,291.84 325.656,293.64 C324.648,295.728 315.792,308.328 306.576,318.768 C306.576,318.768 305.712,319.776 304.92,320.928 C303.192,323.448 297.144,332.016 299.448,334.68 C302.04,337.632 310.392,327.84 314.136,322.512 C315,321.216 318.384,324.672 315.72,328.632 C309.024,338.712 301.536,341.232 297.504,337.272 C296.28,335.976 295.56,334.536 295.344,333.096 C291.168,338.064 286.344,341.592 281.448,336.696 C276.768,332.016 278.64,326.76 284.112,318.48 C286.992,314.088 291.024,310.56 294.192,308.976 C296.712,307.68 298.44,307.968 300.744,309.768 C301.536,310.344 302.472,310.848 303.192,311.496 C306.36,306.672 317.808,289.536 321.264,285.792 C321.858,285.335 321.466,285.55 322.538,285.374 z M299.099,313.531 C294.588,314.59 290.711,320.329 288.144,323.808 C285.192,328.2 282.096,333.744 282.888,334.752 C283.536,335.616 287.424,334.032 294.48,324.672 C300.24,317.184 299.952,314.16 299.376,313.656 L299.099,313.531 z" clip-path="url(#Clip_21)" filter="url(#Shadow_22)" fill="rgba(0,0,0,0.75)"/>
      <path d="M306.576,318.768 C315.792,308.328 324.648,295.728 325.656,293.64 C326.592,291.84 326.952,289.536 325.512,287.592 C323.928,285.288 322.056,284.928 321.264,285.792 C317.808,289.536 306.36,306.672 303.192,311.496 C302.472,310.848 301.536,310.344 300.744,309.768 C298.44,307.968 296.712,307.68 294.192,308.976 C291.024,310.56 286.992,314.088 284.112,318.48 C278.64,326.76 276.768,332.016 281.448,336.696 C286.344,341.592 291.168,338.064 295.344,333.096 C295.56,334.536 296.28,335.976 297.504,337.272 C301.536,341.232 309.024,338.712 315.72,328.632 C318.384,324.672 315,321.216 314.136,322.512 C310.392,327.84 302.04,337.632 299.448,334.68 C297.144,332.016 303.192,323.448 304.92,320.928 C305.712,319.776 306.576,318.768 306.576,318.768 z M294.48,324.672 C287.424,334.032 283.536,335.616 282.888,334.752 C282.096,333.744 285.192,328.2 288.144,323.808 C292.752,317.184 298.152,312.648 299.376,313.656 C299.952,314.16 300.24,317.184 294.48,324.672 z" fill="#FFFFFF"/>
    </g>
    <g>
      <path d="M328.283,306.429 C329.638,306.311 330.671,306.607 331.776,307.32 C337.32,311.28 337.536,313.224 335.736,317.904 C333.216,324.24 328.536,328.632 323.424,329.712 C321.552,330.072 319.464,328.416 318.24,327.264 C317.16,330.432 317.232,333.672 318.6,334.608 C322.344,337.128 332.568,332.88 340.2,321.648 C340.92,320.568 344.664,323.376 341.784,327.84 C337.104,335.184 324.864,342.816 316.08,336.984 C313.272,335.184 311.688,333.456 311.688,329.208 C311.688,321.576 320.76,308.4 327.312,306.6 L328.283,306.429 z M330.969,311.874 C327.188,313.36 324.605,317.355 322.272,320.496 C320.4,323.088 319.248,325.32 319.896,325.68 C320.976,326.256 324,323.664 326.664,320.496 C330.192,316.32 331.704,312.36 331.128,311.928 L330.969,311.874 z" clip-path="url(#Clip_23)" filter="url(#Shadow_24)" fill="rgba(0,0,0,0.75)"/>
      <path d="M327.312,306.6 C320.76,308.4 311.688,321.576 311.688,329.208 C311.688,333.456 313.272,335.184 316.08,336.984 C324.864,342.816 337.104,335.184 341.784,327.84 C344.664,323.376 340.92,320.568 340.2,321.648 C332.568,332.88 322.344,337.128 318.6,334.608 C317.232,333.672 317.16,330.432 318.24,327.264 C319.464,328.416 321.552,330.072 323.424,329.712 C328.536,328.632 333.216,324.24 335.736,317.904 C337.536,313.224 337.32,311.28 331.776,307.32 C330.264,306.168 328.464,306.312 327.312,306.6 z M322.272,320.496 C326.592,314.376 330.48,311.424 331.128,311.928 C331.704,312.36 330.192,316.32 326.664,320.496 C324,323.664 320.976,326.256 319.896,325.68 C319.248,325.32 320.4,323.088 322.272,320.496 z" fill="#FFFFFF"/>
    </g>
    <g>
      <path d="M352.771,297.883 L353.232,297.96 C356.112,298.824 356.976,302.208 355.248,307.104 C354.96,307.968 354.456,309.264 352.944,311.928 C354.816,312.504 357.48,310.776 360.072,308.904 C360.288,308.688 360.504,308.688 360.72,308.688 C361.224,308.688 361.656,308.976 362.016,309.408 C364.608,311.928 364.752,315.168 364.32,315.888 C362.592,318.408 350.568,332.664 352.44,335.616 C354.312,338.568 364.392,328.128 367.776,322.584 C368.64,321.288 372.096,324.744 369.504,328.704 C362.808,338.784 353.664,340.728 349.848,337.848 C344.088,333.384 350.208,323.448 354.96,316.248 C353.52,316.104 352.008,315.6 350.568,314.304 C348.192,318.696 343.08,326.112 340.848,329.064 C339.912,330.36 334.296,329.28 336.24,326.904 C342.36,319.416 344.232,314.448 345.528,311.28 C344.592,310.272 344.088,309.12 344.52,307.464 C345.771,303.516 348.269,298.643 352.771,297.883 z" clip-path="url(#Clip_25)" filter="url(#Shadow_26)" fill="rgba(0,0,0,0.75)"/>
      <path d="M367.776,322.584 C364.392,328.128 354.312,338.568 352.44,335.616 C350.568,332.664 362.592,318.408 364.32,315.888 C364.752,315.168 364.608,311.928 362.016,309.408 C361.656,308.976 361.224,308.688 360.72,308.688 C360.504,308.688 360.288,308.688 360.072,308.904 C357.48,310.776 354.816,312.504 352.944,311.928 C354.456,309.264 354.96,307.968 355.248,307.104 C356.976,302.208 356.112,298.824 353.232,297.96 C350.928,297.24 346.032,301.56 344.52,307.464 C344.088,309.12 344.592,310.272 345.528,311.28 C344.232,314.448 342.36,319.416 336.24,326.904 C334.296,329.28 339.912,330.36 340.848,329.064 C343.08,326.112 348.192,318.696 350.568,314.304 C352.008,315.6 353.52,316.104 354.96,316.248 C350.208,323.448 344.088,333.384 349.848,337.848 C353.664,340.728 362.808,338.784 369.504,328.704 C372.096,324.744 368.64,321.288 367.776,322.584 z" fill="#FFFFFF"/>
    </g>
  </g>
</svg>
