<?xml version="1.0" encoding="UTF-8"?>
<!DOCTYPE svg PUBLIC "-//W3C//DTD SVG 1.1//EN" "http://www.w3.org/Graphics/SVG/1.1/DTD/svg11.dtd">
<svg version="1.1" xmlns="http://www.w3.org/2000/svg" xmlns:xlink="http://www.w3.org/1999/xlink" x="0" y="0" width="22" height="22" viewBox="0, 0, 22, 22">
  <g id="Layer_1">
    <path d="M21.481,5.136 L16.864,0.519 C16.53,0.186 16.078,-0 15.606,0 L1.777,0 C0.796,0.002 0.002,0.797 -0,1.777 L-0,20.223 C0.002,21.204 0.796,21.998 1.777,22 L20.223,22 C21.203,21.998 21.998,21.204 22,20.223 L22,6.391 C22,5.92 21.814,5.468 21.481,5.136 z M13.815,1.375 L13.815,5.115 L4.699,5.115 L4.699,1.375 z M6.655,20.625 L6.655,14.207 L15.345,14.207 L15.345,20.625 z M20.625,20.223 C20.625,20.445 20.445,20.625 20.223,20.625 L16.72,20.625 L16.72,13.52 C16.72,13.14 16.412,12.832 16.032,12.832 L5.967,12.832 C5.587,12.832 5.28,13.14 5.28,13.52 L5.28,20.625 L1.777,20.625 C1.555,20.625 1.375,20.445 1.375,20.223 L1.375,1.777 C1.375,1.555 1.555,1.375 1.777,1.375 L3.324,1.375 L3.324,5.803 C3.324,6.182 3.632,6.49 4.011,6.49 L14.503,6.49 C14.882,6.49 15.19,6.182 15.19,5.803 L15.19,1.375 L15.606,1.375 C15.712,1.377 15.814,1.418 15.891,1.492 L20.508,6.109 C20.583,6.183 20.625,6.285 20.625,6.391 z M5.758,3.867 L5.758,2.836 C5.758,2.456 6.065,2.149 6.445,2.149 C6.825,2.149 7.133,2.456 7.133,2.836 L7.133,3.867 C7.133,4.247 6.825,4.555 6.445,4.555 C6.065,4.555 5.758,4.247 5.758,3.867 z" fill="#000000"/>
  </g>
</svg>
