<?xml version="1.0" encoding="UTF-8"?>
<!DOCTYPE svg PUBLIC "-//W3C//DTD SVG 1.1//EN" "http://www.w3.org/Graphics/SVG/1.1/DTD/svg11.dtd">
<svg version="1.1" xmlns="http://www.w3.org/2000/svg" xmlns:xlink="http://www.w3.org/1999/xlink" x="0" y="0" width="128" height="128" viewBox="0, 0, 128, 128">
  <defs>
    <clipPath id="Clip_1">
      <path d="M72,32.946 L126.333,32.946 L126.333,104 L72,104 z M102.17,45.262 C103.229,45.277 104.296,45.164 105.345,45.308 C110.788,46.053 114.411,50.345 115.094,55.64 C116.726,67.685 105.069,81.139 90.031,81.491 C93.703,74.306 99.182,63.388 102.912,56.415 C104.078,54.16 100.406,48.596 99.299,50.85 C98.541,52.259 92.771,63.529 89.623,69.587 C81.813,62.684 90.381,51.343 94.694,48.103 C96.988,46.613 99.396,45.509 102.17,45.262 z M102.281,40.946 C92.705,41.187 86.393,45.242 82.687,54.301 C80.531,60.218 81.697,66.699 88.341,72.052 C86.534,75.152 79.249,89.592 78.083,92.058 C77.325,93.678 81.988,97.411 82.979,95.439 C83.737,94.1 86.534,88.465 88.05,85.366 C112.122,87.268 119.058,71.207 120.165,63.529 C121.681,52.399 112.705,42.115 103.67,41.058 L102.281,40.946 z"/>
    </clipPath>
    <filter id="Shadow_2">
      <feGaussianBlur in="SourceAlpha" stdDeviation="2.5"/>
      <feOffset dx="0" dy="2" result="offsetblur"/>
      <feFlood flood-color="#000000"/>
      <feComposite in2="offsetblur" operator="in"/>
    </filter>
    <clipPath id="Clip_3">
      <path d="M-6,-9.184 L79.184,-9.184 L79.184,128 L-6,128 z M73.184,-1.184 L0,-1.184 L0,120 L73.184,120 L73.184,-1.184 z"/>
    </clipPath>
    <filter id="Shadow_4">
      <feGaussianBlur in="SourceAlpha" stdDeviation="2.5"/>
      <feOffset dx="0" dy="2" result="offsetblur"/>
      <feFlood flood-color="#000000"/>
      <feComposite in2="offsetblur" operator="in"/>
    </filter>
    <clipPath id="Clip_5">
      <path d="M5.097,28.008 L65.537,28.008 L65.537,100.575 L5.097,100.575 z M49.455,36.008 C48.325,36.168 47.177,36.232 46.065,36.487 C41.842,37.458 37.996,39.624 34.396,41.956 C27.844,46.348 12.868,61.54 17.62,71.404 C19.852,76.084 24.46,79.18 28.708,80.98 C30.796,81.844 37.276,83.356 36.412,85.804 C34.324,91.564 20.86,85.444 16.468,83.068 C14.596,82.06 10.132,84.004 11.284,84.868 C17.98,90.124 39.148,97.756 42.748,87.532 C43.54,85.156 43.18,82.132 40.156,80.476 C33.676,76.804 25.756,76.732 24.172,70.756 C21.58,60.82 35.764,47.716 43.252,43.324 C49.876,39.436 52.18,40.372 52.828,41.092 C54.268,42.82 50.812,49.012 50.092,50.38 C45.484,59.38 36.772,66.652 26.692,68.596 C23.956,69.172 30.364,72.628 35.188,71.62 C49.228,68.74 63.052,50.884 58.732,41.596 C56.704,37.704 53.927,36.066 49.455,36.008 z"/>
    </clipPath>
    <filter id="Shadow_6">
      <feGaussianBlur in="SourceAlpha" stdDeviation="2.5"/>
      <feOffset dx="0" dy="2" result="offsetblur"/>
      <feFlood flood-color="#000000"/>
      <feComposite in2="offsetblur" operator="in"/>
    </filter>
  </defs>
  <g id="Layer_1">
    <g>
      <path d="M60,12 L128,12 L128,128 L60,128 L60,12 z" fill="#6267D3"/>
      <g>
        <path d="M102.281,40.946 L103.67,41.058 C112.705,42.115 121.681,52.399 120.165,63.529 C119.058,71.207 112.122,87.268 88.05,85.366 C86.534,88.465 83.737,94.1 82.979,95.439 C81.988,97.411 77.325,93.678 78.083,92.058 C79.249,89.592 86.534,75.152 88.341,72.052 C81.697,66.699 80.531,60.218 82.687,54.301 C86.393,45.242 92.705,41.187 102.281,40.946 z M102.17,45.262 C99.396,45.509 96.988,46.613 94.694,48.103 C90.381,51.343 81.813,62.684 89.623,69.587 C92.771,63.529 98.541,52.259 99.299,50.85 C100.406,48.596 104.078,54.16 102.912,56.415 C99.182,63.388 93.703,74.306 90.031,81.491 C105.069,81.139 116.726,67.685 115.094,55.64 C114.411,50.345 110.788,46.053 105.345,45.308 C104.296,45.164 103.229,45.277 102.17,45.262 z" clip-path="url(#Clip_1)" filter="url(#Shadow_2)" fill="rgba(0,0,0,0.75)"/>
        <path d="M103.67,41.058 C96.385,40.213 86.942,43.242 82.687,54.301 C80.531,60.218 81.697,66.699 88.341,72.052 C86.534,75.152 79.249,89.592 78.083,92.058 C77.325,93.678 81.988,97.411 82.979,95.439 C83.737,94.1 86.534,88.465 88.05,85.366 C112.122,87.268 119.058,71.207 120.165,63.529 C121.681,52.399 112.705,42.115 103.67,41.058 z M90.031,81.491 C93.703,74.306 99.182,63.388 102.913,56.415 C104.078,54.16 100.406,48.596 99.299,50.85 C98.541,52.259 92.771,63.529 89.623,69.587 C81.813,62.684 90.381,51.343 94.694,48.103 C101.63,43.031 113.462,44.017 115.094,55.64 C116.726,67.685 105.069,81.139 90.031,81.491 z" fill="#FFFFFF"/>
      </g>
    </g>
    <g>
      <path d="M73.184,-1.184 L73.184,120 L0,120 L0,-1.184 L73.184,-1.184 z" clip-path="url(#Clip_3)" filter="url(#Shadow_4)" fill="rgba(0,0,0,0.75)"/>
      <path d="M0,-1.184 L73.184,-1.184 L73.184,120 L0,120 L0,-1.184 z" fill="#EB4D4B"/>
    </g>
    <g>
      <path d="M49.455,36.008 C53.927,36.066 56.704,37.704 58.732,41.596 C63.052,50.884 49.228,68.74 35.188,71.62 C30.364,72.628 23.956,69.172 26.692,68.596 C36.772,66.652 45.484,59.38 50.092,50.38 C50.812,49.012 54.268,42.82 52.828,41.092 C52.18,40.372 49.876,39.436 43.252,43.324 C35.764,47.716 21.58,60.82 24.172,70.756 C25.756,76.732 33.676,76.804 40.156,80.476 C43.18,82.132 43.54,85.156 42.748,87.532 C39.148,97.756 17.98,90.124 11.284,84.868 C10.132,84.004 14.596,82.06 16.468,83.068 C20.86,85.444 34.324,91.564 36.412,85.804 C37.276,83.356 30.796,81.844 28.708,80.98 C24.46,79.18 19.852,76.084 17.62,71.404 C12.868,61.54 27.844,46.348 34.396,41.956 C37.996,39.624 41.842,37.458 46.065,36.487 C47.177,36.232 48.325,36.168 49.455,36.008 z" clip-path="url(#Clip_5)" filter="url(#Shadow_6)" fill="rgba(0,0,0,0.75)"/>
      <path d="M43.252,43.324 C49.876,39.436 52.18,40.372 52.828,41.092 C54.268,42.82 50.812,49.012 50.092,50.38 C45.484,59.38 36.772,66.652 26.692,68.596 C23.956,69.172 30.364,72.628 35.188,71.62 C49.228,68.74 63.052,50.884 58.732,41.596 C54.124,31.876 42.244,36.7 34.396,41.956 C27.844,46.348 12.868,61.54 17.62,71.404 C19.852,76.084 24.46,79.18 28.708,80.98 C30.796,81.844 37.276,83.356 36.412,85.804 C34.324,91.564 20.86,85.444 16.468,83.068 C14.596,82.06 10.132,84.004 11.284,84.868 C17.98,90.124 39.148,97.756 42.748,87.532 C43.54,85.156 43.18,82.132 40.156,80.476 C33.676,76.804 25.756,76.732 24.172,70.756 C21.58,60.82 35.764,47.716 43.252,43.324 z" fill="#FFFFFF"/>
    </g>
  </g>
</svg>
