<?xml version="1.0" encoding="UTF-8"?>
<!DOCTYPE svg PUBLIC "-//W3C//DTD SVG 1.1//EN" "http://www.w3.org/Graphics/SVG/1.1/DTD/svg11.dtd">
<svg version="1.1" xmlns="http://www.w3.org/2000/svg" xmlns:xlink="http://www.w3.org/1999/xlink" x="0" y="0" width="21" height="21" viewBox="0, 0, 21, 21">
  <g id="background"/>
  <g id="text_x5F_align_x5F_left">
    <path d="M0,1.909 L0,0 L21,0 L21,1.909 L0,1.909 z" fill="#000000"/>
    <path d="M0,9.545 L0,7.636 L21,7.636 L21,9.545 L0,9.545 z" fill="#000000"/>
    <path d="M0,17.182 L0,15.273 L21,15.273 L21,17.182 L0,17.182 z" fill="#000000"/>
    <path d="M3,5.727 L3,3.818 L18,3.818 L18,5.727 L3,5.727 z" fill="#000000"/>
    <path d="M3,13.364 L3,11.455 L18,11.455 L18,13.364 L3,13.364 z" fill="#000000"/>
    <path d="M3,21 L3,19.092 L18,19.092 L18,21 L3,21 z" fill="#000000"/>
  </g>
</svg>
