<?xml version="1.0" encoding="UTF-8"?>
<!DOCTYPE svg PUBLIC "-//W3C//DTD SVG 1.1//EN" "http://www.w3.org/Graphics/SVG/1.1/DTD/svg11.dtd">
<svg version="1.1" xmlns="http://www.w3.org/2000/svg" xmlns:xlink="http://www.w3.org/1999/xlink" x="0" y="0" width="28.748" height="20" viewBox="0, 0, 28.748, 20">
  <g id="Livello_46">
    <path d="M28.118,3.349 C27.899,3.213 27.649,3.145 27.399,3.145 C27.189,3.145 26.979,3.193 26.786,3.289 L23.286,5.04 L23.286,4.516 C23.286,2.248 21.44,0.403 19.173,0.403 L4.091,0.403 C1.824,0.403 -0.022,2.248 -0.022,4.516 L-0.022,15.484 C-0.022,17.752 1.824,19.597 4.091,19.597 L19.173,19.597 C21.44,19.597 23.286,17.752 23.286,15.484 L23.286,14.96 L26.786,16.71 C26.979,16.807 27.189,16.855 27.399,16.855 C27.649,16.855 27.899,16.787 28.118,16.651 C28.523,16.4 28.77,15.96 28.77,15.484 L28.77,4.516 C28.77,4.04 28.523,3.6 28.118,3.349 z M6.833,12.057 C5.697,12.057 4.777,11.137 4.777,10 C4.777,8.863 5.697,7.943 6.833,7.943 C7.97,7.943 8.89,8.863 8.89,10 C8.89,11.137 7.97,12.057 6.833,12.057 z" fill="#000000" id="iconfinder_video_216502"/>
  </g>
</svg>
